G04 start of page 4 for group 6 idx 6 *
G04 Title: Septimus, outline *
G04 Creator: pcb 20140316 *
G04 CreationDate: Mon Jun  9 18:26:02 2014 UTC *
G04 For: scheibler *
G04 Format: Gerber/RS-274X *
G04 PCB-Dimensions (mil): 10000.00 4000.00 *
G04 PCB-Coordinate-Origin: lower left *
%MOIN*%
%FSLAX25Y25*%
%LNOUTLINE*%
%ADD48C,0.0100*%
G54D48*X970000Y362500D02*X20000D01*
Y42500D02*X970000D01*
Y362500D01*
Y35000D02*Y20000D01*
X962500Y27500D02*X977500D01*
X960000D02*X970000Y37500D01*
X980000Y27500D01*
X970000Y17500D01*
X960000Y27500D01*
X935000Y370000D02*Y385000D01*
X927500Y377500D02*X942500D01*
X925000D02*X935000Y387500D01*
Y367500D02*X925000Y377500D01*
X935000Y387500D02*X945000Y377500D01*
X935000Y367500D01*
X20000Y362500D02*Y42500D01*
X30000Y370000D02*Y385000D01*
X22500Y377500D02*X37500D01*
X20000D02*X30000Y387500D01*
Y367500D02*X20000Y377500D01*
X30000Y387500D02*X40000Y377500D01*
X30000Y367500D01*
Y20000D02*Y35000D01*
X20000Y27500D02*X30000Y37500D01*
X40000Y27500D01*
X30000Y17500D01*
X20000Y27500D01*
X22500D02*X37500D01*
M02*
