G04 start of page 8 for group -4079 idx -4079 *
G04 Title: Septimus, topsilk *
G04 Creator: pcb 20140316 *
G04 CreationDate: Mon Jun  9 18:26:02 2014 UTC *
G04 For: scheibler *
G04 Format: Gerber/RS-274X *
G04 PCB-Dimensions (mil): 10000.00 4000.00 *
G04 PCB-Coordinate-Origin: lower left *
%MOIN*%
%FSLAX25Y25*%
%LNTOPSILK*%
%ADD74C,0.0200*%
%ADD73C,0.0100*%
G54D73*X20500Y86700D02*X209500D01*
Y358300D01*
X20500D01*
Y86700D01*
X210500D02*X399500D01*
Y358300D01*
X210500D01*
Y86700D01*
X400500D02*X589500D01*
Y358300D01*
X400500D01*
Y86700D01*
X940000Y227500D02*Y187500D01*
X950000D01*
Y227500D02*Y187500D01*
X940000Y227500D02*X950000D01*
X940000Y217500D02*X950000D01*
Y227500D02*Y217500D01*
G54D74*X925000Y237500D02*Y217500D01*
Y237500D02*X935000D01*
Y217500D01*
X925000D02*X935000D01*
X930000D02*Y207500D01*
Y247500D02*Y237500D01*
X950000Y277500D02*Y257500D01*
X940000D02*X950000D01*
X940000Y277500D02*Y257500D01*
Y277500D02*X950000D01*
X945000Y287500D02*Y277500D01*
Y257500D02*Y247500D01*
X655000Y55000D02*X675000D01*
X655000Y65000D02*Y55000D01*
Y65000D02*X675000D01*
Y55000D01*
Y60000D02*X685000D01*
X645000D02*X655000D01*
X730000Y55000D02*X750000D01*
X730000Y65000D02*Y55000D01*
Y65000D02*X750000D01*
Y55000D01*
Y60000D02*X760000D01*
X720000D02*X730000D01*
Y67500D02*X750000D01*
X730000Y77500D02*Y67500D01*
Y77500D02*X750000D01*
Y67500D01*
Y72500D02*X760000D01*
X720000D02*X730000D01*
G54D73*X709500Y74500D02*Y60500D01*
X709571Y74571D02*G75*G03X709571Y60429I-7071J-7071D01*G01*
G54D74*X655000Y77500D02*X675000D01*
Y67500D01*
X655000D02*X675000D01*
X655000Y77500D02*Y67500D01*
X645000Y72500D02*X655000D01*
X675000D02*X685000D01*
G54D73*X618000Y60500D02*X632000D01*
X632071Y60429D02*G75*G03X617929Y60429I-7071J7071D01*G01*
X519500Y74500D02*Y60500D01*
X519571Y74571D02*G75*G03X519571Y60429I-7071J-7071D01*G01*
G54D74*X540000Y55000D02*X560000D01*
X540000Y65000D02*Y55000D01*
Y65000D02*X560000D01*
Y55000D01*
Y60000D02*X570000D01*
X530000D02*X540000D01*
Y67500D02*X560000D01*
X540000Y77500D02*Y67500D01*
Y77500D02*X560000D01*
Y67500D01*
Y72500D02*X570000D01*
X530000D02*X540000D01*
G54D73*X868000Y92000D02*X882000D01*
X867929Y92071D02*G75*G03X882071Y92071I7071J-7071D01*G01*
G54D74*X875000Y60000D02*X895000D01*
X875000Y70000D02*Y60000D01*
Y70000D02*X895000D01*
Y60000D01*
Y65000D02*X905000D01*
X865000D02*X875000D01*
Y100000D02*X895000D01*
X875000Y110000D02*Y100000D01*
Y110000D02*X895000D01*
Y100000D01*
Y105000D02*X905000D01*
X865000D02*X875000D01*
X835000Y95000D02*Y75000D01*
Y95000D02*X845000D01*
Y75000D01*
X835000D02*X845000D01*
X840000D02*Y65000D01*
Y105000D02*Y95000D01*
G54D73*X855000Y78300D02*Y65000D01*
Y105000D02*Y91700D01*
Y78300D02*X848400Y91700D01*
X861600D01*
X855000Y78300D01*
X848400D02*X861600D01*
X970000Y58500D02*Y96500D01*
Y58500D02*X913000D01*
X970000Y96500D02*X913000D01*
X960000D02*Y58500D01*
X913000D02*Y96500D01*
X923000Y69500D02*X941000D01*
Y65500D02*X923000D01*
Y69500D01*
X916000Y76500D01*
X936000Y79500D02*X927000D01*
X924000Y76500D01*
X921000Y79500D01*
X932000Y95500D02*X956000Y71500D01*
X930000D01*
Y77500D01*
X928000Y75500D01*
X932000D01*
X930000Y77500D01*
X941000Y65500D02*G75*G03X943000Y67500I0J2000D01*G01*
G75*G03X941000Y69500I-2000J0D01*G01*
X815000Y77500D02*G75*G03X815000Y77500I0J-10000D01*G01*
X428000Y58000D02*X442000D01*
X442071Y57929D02*G75*G03X427929Y57929I-7071J7071D01*G01*
G54D74*X350000Y55000D02*X370000D01*
X350000Y65000D02*Y55000D01*
Y65000D02*X370000D01*
Y55000D01*
Y60000D02*X380000D01*
X340000D02*X350000D01*
Y67500D02*X370000D01*
X350000Y77500D02*Y67500D01*
Y77500D02*X370000D01*
Y67500D01*
Y72500D02*X380000D01*
X340000D02*X350000D01*
X465000Y55000D02*X485000D01*
X465000Y65000D02*Y55000D01*
Y65000D02*X485000D01*
Y55000D01*
Y60000D02*X495000D01*
X455000D02*X465000D01*
Y77500D02*X485000D01*
Y67500D01*
X465000D02*X485000D01*
X465000Y77500D02*Y67500D01*
X455000Y72500D02*X465000D01*
X485000D02*X495000D01*
G54D73*X238000Y58000D02*X252000D01*
X252071Y57929D02*G75*G03X237929Y57929I-7071J7071D01*G01*
X329500Y74500D02*Y60500D01*
X329571Y74571D02*G75*G03X329571Y60429I-7071J-7071D01*G01*
G54D74*X275000Y55000D02*X295000D01*
X275000Y65000D02*Y55000D01*
Y65000D02*X295000D01*
Y55000D01*
Y60000D02*X305000D01*
X265000D02*X275000D01*
Y77500D02*X295000D01*
Y67500D01*
X275000D02*X295000D01*
X275000Y77500D02*Y67500D01*
X265000Y72500D02*X275000D01*
X295000D02*X305000D01*
G54D73*X139500Y74500D02*Y60500D01*
X139571Y74571D02*G75*G03X139571Y60429I-7071J-7071D01*G01*
G54D74*X160000Y67500D02*X180000D01*
X160000Y77500D02*Y67500D01*
Y77500D02*X180000D01*
Y67500D01*
Y72500D02*X190000D01*
X150000D02*X160000D01*
Y55000D02*X180000D01*
X160000Y65000D02*Y55000D01*
Y65000D02*X180000D01*
Y55000D01*
Y60000D02*X190000D01*
X150000D02*X160000D01*
G54D73*X48000Y58000D02*X62000D01*
X62071Y57929D02*G75*G03X47929Y57929I-7071J7071D01*G01*
G54D74*X85000Y55000D02*X105000D01*
X85000Y65000D02*Y55000D01*
Y65000D02*X105000D01*
Y55000D01*
Y60000D02*X115000D01*
X75000D02*X85000D01*
Y77500D02*X105000D01*
Y67500D01*
X85000D02*X105000D01*
X85000Y77500D02*Y67500D01*
X75000Y72500D02*X85000D01*
X105000D02*X115000D01*
G54D73*X590500Y86700D02*X779500D01*
Y358300D01*
X590500D01*
Y86700D01*
X815000Y175000D02*G75*G03X815000Y175000I0J-30000D01*G01*
G54D74*X847500Y237500D02*Y217500D01*
X837500D02*X847500D01*
X837500Y237500D02*Y217500D01*
Y237500D02*X847500D01*
X842500Y247500D02*Y237500D01*
Y217500D02*Y207500D01*
X837500Y237500D02*Y217500D01*
X827500D02*X837500D01*
X827500Y237500D02*Y217500D01*
Y237500D02*X837500D01*
X832500Y247500D02*Y237500D01*
Y217500D02*Y207500D01*
X827500Y237500D02*Y217500D01*
X817500D02*X827500D01*
X817500Y237500D02*Y217500D01*
Y237500D02*X827500D01*
X822500Y247500D02*Y237500D01*
Y217500D02*Y207500D01*
X847500Y327500D02*Y307500D01*
X837500D02*X847500D01*
X837500Y327500D02*Y307500D01*
Y327500D02*X847500D01*
X842500Y337500D02*Y327500D01*
Y307500D02*Y297500D01*
X857500Y327500D02*Y307500D01*
X847500D02*X857500D01*
X847500Y327500D02*Y307500D01*
Y327500D02*X857500D01*
X852500Y337500D02*Y327500D01*
Y307500D02*Y297500D01*
G54D73*X803000Y330500D02*X817000D01*
X817071Y330429D02*G75*G03X802929Y330429I-7071J7071D01*G01*
G54D74*X795000Y327500D02*Y307500D01*
X785000D02*X795000D01*
X785000Y327500D02*Y307500D01*
Y327500D02*X795000D01*
X790000Y337500D02*Y327500D01*
Y307500D02*Y297500D01*
X837500Y327500D02*Y307500D01*
X827500D02*X837500D01*
X827500Y327500D02*Y307500D01*
Y327500D02*X837500D01*
X832500Y337500D02*Y327500D01*
Y307500D02*Y297500D01*
X860000Y185000D02*X880000D01*
Y175000D01*
X860000D02*X880000D01*
X860000Y185000D02*Y175000D01*
X850000Y180000D02*X860000D01*
X880000D02*X890000D01*
G54D73*X880000Y165000D02*X885000D01*
X865000D02*X870000D01*
Y163400D02*X880000D01*
X870000Y166600D02*Y163400D01*
Y166600D02*X880000D01*
Y163400D01*
X902500Y130000D02*X905000D01*
X895000D02*X897500D01*
Y129200D02*X902500D01*
X897500Y130800D02*Y129200D01*
Y130800D02*X902500D01*
Y129200D01*
X850000Y115000D02*X890000D01*
Y155000D02*Y115000D01*
X850000Y155000D02*X890000D01*
X850000Y130000D02*Y115000D01*
Y155000D02*Y140000D01*
Y130000D02*G75*G03X850000Y140000I0J5000D01*G01*
G54D74*X867500Y237500D02*Y217500D01*
X857500D02*X867500D01*
X857500Y237500D02*Y217500D01*
Y237500D02*X867500D01*
X862500Y247500D02*Y237500D01*
Y217500D02*Y207500D01*
G54D73*X875000Y237500D02*X905000D01*
X875000D02*Y217500D01*
X905000D01*
Y237500D02*Y217500D01*
X895000Y237500D02*Y227500D01*
X905000D01*
G54D74*X912500Y237500D02*Y217500D01*
Y237500D02*X922500D01*
Y217500D01*
X912500D02*X922500D01*
X917500D02*Y207500D01*
Y247500D02*Y237500D01*
X857500D02*Y217500D01*
X847500D02*X857500D01*
X847500Y237500D02*Y217500D01*
Y237500D02*X857500D01*
X852500Y247500D02*Y237500D01*
Y217500D02*Y207500D01*
G54D73*X807500Y292500D02*X907500D01*
X807500D02*Y252500D01*
X907500D01*
Y292500D02*Y277500D01*
Y267500D02*Y252500D01*
Y277500D02*G75*G03X907500Y267500I0J-5000D01*G01*
X912500D02*Y265000D01*
Y260000D02*Y257500D01*
X913300Y265000D02*Y260000D01*
X911700D02*X913300D01*
X911700Y265000D02*Y260000D01*
Y265000D02*X913300D01*
X26000Y350700D02*Y346700D01*
X27300Y350700D02*X28000Y350000D01*
Y347400D01*
X27300Y346700D02*X28000Y347400D01*
X25500Y346700D02*X27300D01*
X25500Y350700D02*X27300D01*
X29200D02*X30200D01*
X29700D02*Y346700D01*
X29200D02*X30200D01*
X33400Y350700D02*X33900Y350200D01*
X31900Y350700D02*X33400D01*
X31400Y350200D02*X31900Y350700D01*
X31400Y350200D02*Y347200D01*
X31900Y346700D01*
X33400D01*
X33900Y347200D01*
Y348200D02*Y347200D01*
X33400Y348700D02*X33900Y348200D01*
X32400Y348700D02*X33400D01*
X35100Y349900D02*X35900Y350700D01*
Y346700D01*
X35100D02*X36600D01*
X596000Y350700D02*Y346700D01*
X597300Y350700D02*X598000Y350000D01*
Y347400D01*
X597300Y346700D02*X598000Y347400D01*
X595500Y346700D02*X597300D01*
X595500Y350700D02*X597300D01*
X599200Y349900D02*X600000Y350700D01*
Y346700D01*
X599200D02*X600700D01*
X601900Y347200D02*X602400Y346700D01*
X601900Y350200D02*Y347200D01*
Y350200D02*X602400Y350700D01*
X603400D01*
X603900Y350200D01*
Y347200D01*
X603400Y346700D02*X603900Y347200D01*
X602400Y346700D02*X603400D01*
X601900Y347700D02*X603900Y349700D01*
X605100Y348200D02*X607100Y350700D01*
X605100Y348200D02*X607600D01*
X607100Y350700D02*Y346700D01*
X216000Y350700D02*Y346700D01*
X217300Y350700D02*X218000Y350000D01*
Y347400D01*
X217300Y346700D02*X218000Y347400D01*
X215500Y346700D02*X217300D01*
X215500Y350700D02*X217300D01*
X219200Y349900D02*X220000Y350700D01*
Y346700D01*
X219200D02*X220700D01*
X221900Y347200D02*X222400Y346700D01*
X221900Y350200D02*Y347200D01*
Y350200D02*X222400Y350700D01*
X223400D01*
X223900Y350200D01*
Y347200D01*
X223400Y346700D02*X223900Y347200D01*
X222400Y346700D02*X223400D01*
X221900Y347700D02*X223900Y349700D01*
X225100Y350200D02*X225600Y350700D01*
X227100D01*
X227600Y350200D01*
Y349200D01*
X225100Y346700D02*X227600Y349200D01*
X225100Y346700D02*X227600D01*
X406000Y350700D02*Y346700D01*
X407300Y350700D02*X408000Y350000D01*
Y347400D01*
X407300Y346700D02*X408000Y347400D01*
X405500Y346700D02*X407300D01*
X405500Y350700D02*X407300D01*
X409200Y349900D02*X410000Y350700D01*
Y346700D01*
X409200D02*X410700D01*
X411900Y347200D02*X412400Y346700D01*
X411900Y350200D02*Y347200D01*
Y350200D02*X412400Y350700D01*
X413400D01*
X413900Y350200D01*
Y347200D01*
X413400Y346700D02*X413900Y347200D01*
X412400Y346700D02*X413400D01*
X411900Y347700D02*X413900Y349700D01*
X415100Y350200D02*X415600Y350700D01*
X416600D01*
X417100Y350200D01*
X416600Y346700D02*X417100Y347200D01*
X415600Y346700D02*X416600D01*
X415100Y347200D02*X415600Y346700D01*
Y348900D02*X416600D01*
X417100Y350200D02*Y349400D01*
Y348400D02*Y347200D01*
Y348400D02*X416600Y348900D01*
X417100Y349400D02*X416600Y348900D01*
X939000Y226800D02*Y226000D01*
X935500D02*X939000D01*
X935000Y226500D02*X935500Y226000D01*
X935000Y227000D02*Y226500D01*
X935500Y227500D02*X935000Y227000D01*
X935500Y227500D02*X936000D01*
X938500Y224800D02*X939000Y224300D01*
Y223300D01*
X938500Y222800D01*
X935000Y223300D02*X935500Y222800D01*
X935000Y224300D02*Y223300D01*
X935500Y224800D02*X935000Y224300D01*
X937200D02*Y223300D01*
X937700Y222800D02*X938500D01*
X935500D02*X936700D01*
X937200Y223300D01*
X937700Y222800D02*X937200Y223300D01*
X935500Y221600D02*X935000Y221100D01*
X935500Y221600D02*X938500D01*
X939000Y221100D01*
Y220100D01*
X938500Y219600D01*
X935500D02*X938500D01*
X935000Y220100D02*X935500Y219600D01*
X935000Y221100D02*Y220100D01*
X936000Y221600D02*X938000Y219600D01*
X938200Y218400D02*X939000Y217600D01*
X935000D02*X939000D01*
X935000Y218400D02*Y216900D01*
X928500Y222000D02*Y220000D01*
Y222000D02*X929000Y222500D01*
X930000D01*
X930500Y222000D02*X930000Y222500D01*
X930500Y222000D02*Y220500D01*
X928500D02*X932500D01*
X930500Y221300D02*X932500Y222500D01*
X929000Y223700D02*X928500Y224200D01*
Y225200D02*Y224200D01*
Y225200D02*X929000Y225700D01*
X932500Y225200D02*X932000Y225700D01*
X932500Y225200D02*Y224200D01*
X932000Y223700D02*X932500Y224200D01*
X930300Y225200D02*Y224200D01*
X929000Y225700D02*X929800D01*
X930800D02*X932000D01*
X930800D02*X930300Y225200D01*
X929800Y225700D02*X930300Y225200D01*
X929300Y226900D02*X928500Y227700D01*
X932500D01*
Y228400D02*Y226900D01*
X929300Y229600D02*X928500Y230400D01*
X932500D01*
Y231100D02*Y229600D01*
X949000Y287500D02*Y285500D01*
X948500Y285000D01*
X947500D02*X948500D01*
X947000Y285500D02*X947500Y285000D01*
X947000Y287000D02*Y285500D01*
X945000Y287000D02*X949000D01*
X947000Y286200D02*X945000Y285000D01*
X948500Y283800D02*X949000Y283300D01*
Y282300D01*
X948500Y281800D01*
X945000Y282300D02*X945500Y281800D01*
X945000Y283300D02*Y282300D01*
X945500Y283800D02*X945000Y283300D01*
X947200D02*Y282300D01*
X947700Y281800D02*X948500D01*
X945500D02*X946700D01*
X947200Y282300D01*
X947700Y281800D02*X947200Y282300D01*
X945500Y280600D02*X945000Y280100D01*
X945500Y280600D02*X948500D01*
X949000Y280100D01*
Y279100D01*
X948500Y278600D01*
X945500D02*X948500D01*
X945000Y279100D02*X945500Y278600D01*
X945000Y280100D02*Y279100D01*
X946000Y280600D02*X948000Y278600D01*
X948200Y277400D02*X949000Y276600D01*
X945000D02*X949000D01*
X945000Y277400D02*Y275900D01*
X887500Y93500D02*Y90500D01*
Y93500D02*X888000Y94000D01*
X889000D01*
X889500Y93500D01*
Y91000D01*
X888500Y90000D02*X889500Y91000D01*
X888000Y90000D02*X888500D01*
X887500Y90500D02*X888000Y90000D01*
X888500Y91500D02*X889500Y90000D01*
X890700Y93200D02*X891500Y94000D01*
Y90000D01*
X890700D02*X892200D01*
X893400Y90500D02*X893900Y90000D01*
X893400Y93500D02*Y90500D01*
Y93500D02*X893900Y94000D01*
X894900D01*
X895400Y93500D01*
Y90500D01*
X894900Y90000D02*X895400Y90500D01*
X893900Y90000D02*X894900D01*
X893400Y91000D02*X895400Y93000D01*
X896600Y93200D02*X897400Y94000D01*
Y90000D01*
X896600D02*X898100D01*
X888000Y61000D02*X890000D01*
X888000D02*X887500Y61500D01*
Y62500D02*Y61500D01*
X888000Y63000D02*X887500Y62500D01*
X888000Y63000D02*X889500D01*
Y65000D02*Y61000D01*
X888700Y63000D02*X887500Y65000D01*
X886300Y61800D02*X885500Y61000D01*
Y65000D02*Y61000D01*
X884800Y65000D02*X886300D01*
X883600Y64500D02*X883100Y65000D01*
X883600Y64500D02*Y61500D01*
X883100Y61000D01*
X882100D02*X883100D01*
X882100D02*X881600Y61500D01*
Y64500D02*Y61500D01*
X882100Y65000D02*X881600Y64500D01*
X882100Y65000D02*X883100D01*
X883600Y64000D02*X881600Y62000D01*
X880400Y61500D02*X879900Y61000D01*
X878400D02*X879900D01*
X878400D02*X877900Y61500D01*
Y62500D02*Y61500D01*
X880400Y65000D02*X877900Y62500D01*
Y65000D02*X880400D01*
X888000Y101000D02*X890000D01*
X888000D02*X887500Y101500D01*
Y102500D02*Y101500D01*
X888000Y103000D02*X887500Y102500D01*
X888000Y103000D02*X889500D01*
Y105000D02*Y101000D01*
X888700Y103000D02*X887500Y105000D01*
X886300Y101800D02*X885500Y101000D01*
Y105000D02*Y101000D01*
X884800Y105000D02*X886300D01*
X883600Y104500D02*X883100Y105000D01*
X883600Y104500D02*Y101500D01*
X883100Y101000D01*
X882100D02*X883100D01*
X882100D02*X881600Y101500D01*
Y104500D02*Y101500D01*
X882100Y105000D02*X881600Y104500D01*
X882100Y105000D02*X883100D01*
X883600Y104000D02*X881600Y102000D01*
X880400Y101800D02*X879600Y101000D01*
Y105000D02*Y101000D01*
X878900Y105000D02*X880400D01*
X913700Y99500D02*X915000D01*
X913000Y100200D02*X913700Y99500D01*
X913000Y102800D02*Y100200D01*
Y102800D02*X913700Y103500D01*
X915000D01*
X916200Y103000D02*Y100000D01*
Y103000D02*X916700Y103500D01*
X917700D01*
X918200Y103000D01*
Y100000D01*
X917700Y99500D02*X918200Y100000D01*
X916700Y99500D02*X917700D01*
X916200Y100000D02*X916700Y99500D01*
X919400Y103500D02*Y99500D01*
Y103500D02*X921900Y99500D01*
Y103500D02*Y99500D01*
X923100Y103500D02*Y99500D01*
Y103500D02*X925600Y99500D01*
Y103500D02*Y99500D01*
X926800Y102700D02*X927600Y103500D01*
Y99500D01*
X926800D02*X928300D01*
X929500Y100000D02*X930000Y99500D01*
X929500Y103000D02*Y100000D01*
Y103000D02*X930000Y103500D01*
X931000D01*
X931500Y103000D01*
Y100000D01*
X931000Y99500D02*X931500Y100000D01*
X930000Y99500D02*X931000D01*
X929500Y100500D02*X931500Y102500D01*
X932700Y102700D02*X933500Y103500D01*
Y99500D01*
X932700D02*X934200D01*
X865000Y184000D02*X867000D01*
X867500Y183500D01*
Y182500D01*
X867000Y182000D02*X867500Y182500D01*
X865500Y182000D02*X867000D01*
X865500Y184000D02*Y180000D01*
X866300Y182000D02*X867500Y180000D01*
X868700Y183200D02*X869500Y184000D01*
Y180000D01*
X868700D02*X870200D01*
X871400Y180500D02*X871900Y180000D01*
X871400Y183500D02*Y180500D01*
Y183500D02*X871900Y184000D01*
X872900D01*
X873400Y183500D01*
Y180500D01*
X872900Y180000D02*X873400Y180500D01*
X871900Y180000D02*X872900D01*
X871400Y181000D02*X873400Y183000D01*
X874600Y181500D02*X876600Y184000D01*
X874600Y181500D02*X877100D01*
X876600Y184000D02*Y180000D01*
X898000Y163400D02*X899300D01*
X900000Y162700D02*X899300Y163400D01*
X900000Y162700D02*Y160100D01*
X899300Y159400D01*
X898000D02*X899300D01*
X896800Y160200D02*X896000Y159400D01*
Y163400D02*Y159400D01*
X895300Y163400D02*X896800D01*
X894100Y162900D02*X893600Y163400D01*
X894100Y162900D02*Y159900D01*
X893600Y159400D01*
X892600D02*X893600D01*
X892600D02*X892100Y159900D01*
Y162900D02*Y159900D01*
X892600Y163400D02*X892100Y162900D01*
X892600Y163400D02*X893600D01*
X894100Y162400D02*X892100Y160400D01*
X890900Y160200D02*X890100Y159400D01*
Y163400D02*Y159400D01*
X889400Y163400D02*X890900D01*
X903000Y144200D02*X904300D01*
X905000Y143500D02*X904300Y144200D01*
X905000Y143500D02*Y140900D01*
X904300Y140200D01*
X903000D02*X904300D01*
X901800Y141000D02*X901000Y140200D01*
Y144200D02*Y140200D01*
X900300Y144200D02*X901800D01*
X899100Y143700D02*X898600Y144200D01*
X899100Y143700D02*Y140700D01*
X898600Y140200D01*
X897600D02*X898600D01*
X897600D02*X897100Y140700D01*
Y143700D02*Y140700D01*
X897600Y144200D02*X897100Y143700D01*
X897600Y144200D02*X898600D01*
X899100Y143200D02*X897100Y141200D01*
X895900Y140700D02*X895400Y140200D01*
X894400D02*X895400D01*
X894400D02*X893900Y140700D01*
X894400Y144200D02*X893900Y143700D01*
X894400Y144200D02*X895400D01*
X895900Y143700D02*X895400Y144200D01*
X894400Y142000D02*X895400D01*
X893900Y141500D02*Y140700D01*
Y143700D02*Y142500D01*
X894400Y142000D01*
X893900Y141500D02*X894400Y142000D01*
X850000Y161500D02*Y158000D01*
X850500Y157500D01*
X851500D01*
X852000Y158000D01*
Y161500D02*Y158000D01*
X853200Y160700D02*X854000Y161500D01*
Y157500D01*
X853200D02*X854700D01*
X855900Y158000D02*X856400Y157500D01*
X855900Y161000D02*Y158000D01*
Y161000D02*X856400Y161500D01*
X857400D01*
X857900Y161000D01*
Y158000D01*
X857400Y157500D02*X857900Y158000D01*
X856400Y157500D02*X857400D01*
X855900Y158500D02*X857900Y160500D01*
X859100Y160700D02*X859900Y161500D01*
Y157500D01*
X859100D02*X860600D01*
X907500Y297000D02*Y293500D01*
Y297000D02*X907000Y297500D01*
X906000D02*X907000D01*
X906000D02*X905500Y297000D01*
Y293500D01*
X904300Y294000D02*X903800Y293500D01*
X902800D02*X903800D01*
X902800D02*X902300Y294000D01*
X902800Y297500D02*X902300Y297000D01*
X902800Y297500D02*X903800D01*
X904300Y297000D02*X903800Y297500D01*
X902800Y295300D02*X903800D01*
X902300Y294800D02*Y294000D01*
Y297000D02*Y295800D01*
X902800Y295300D01*
X902300Y294800D02*X902800Y295300D01*
X901100Y297000D02*X900600Y297500D01*
X901100Y297000D02*Y294000D01*
X900600Y293500D01*
X899600D02*X900600D01*
X899600D02*X899100Y294000D01*
Y297000D02*Y294000D01*
X899600Y297500D02*X899100Y297000D01*
X899600Y297500D02*X900600D01*
X901100Y296500D02*X899100Y294500D01*
X897900Y294300D02*X897100Y293500D01*
Y297500D02*Y293500D01*
X896400Y297500D02*X897900D01*
X903000Y242500D02*X904300D01*
X905000Y241800D02*X904300Y242500D01*
X905000Y241800D02*Y239200D01*
X904300Y238500D01*
X903000D02*X904300D01*
X901800Y242000D02*Y239000D01*
X901300Y238500D01*
X900300D02*X901300D01*
X900300D02*X899800Y239000D01*
Y242000D02*Y239000D01*
X900300Y242500D02*X899800Y242000D01*
X900300Y242500D02*X901300D01*
X901800Y242000D02*X901300Y242500D01*
X898600D02*Y238500D01*
X896100Y242500D01*
Y238500D01*
X894900Y242500D02*Y238500D01*
X892400Y242500D01*
Y238500D01*
X891200Y239000D02*X890700Y238500D01*
X889700D02*X890700D01*
X889700D02*X889200Y239000D01*
X889700Y242500D02*X889200Y242000D01*
X889700Y242500D02*X890700D01*
X891200Y242000D02*X890700Y242500D01*
X889700Y240300D02*X890700D01*
X889200Y239800D02*Y239000D01*
Y242000D02*Y240800D01*
X889700Y240300D01*
X889200Y239800D02*X889700Y240300D01*
X888000Y242000D02*X887500Y242500D01*
X888000Y242000D02*Y239000D01*
X887500Y238500D01*
X886500D02*X887500D01*
X886500D02*X886000Y239000D01*
Y242000D02*Y239000D01*
X886500Y242500D02*X886000Y242000D01*
X886500Y242500D02*X887500D01*
X888000Y241500D02*X886000Y239500D01*
X884800Y239300D02*X884000Y238500D01*
Y242500D02*Y238500D01*
X883300Y242500D02*X884800D01*
X916000Y222000D02*Y220000D01*
Y222000D02*X916500Y222500D01*
X917500D01*
X918000Y222000D02*X917500Y222500D01*
X918000Y222000D02*Y220500D01*
X916000D02*X920000D01*
X918000Y221300D02*X920000Y222500D01*
X916500Y223700D02*X916000Y224200D01*
Y225200D02*Y224200D01*
Y225200D02*X916500Y225700D01*
X920000Y225200D02*X919500Y225700D01*
X920000Y225200D02*Y224200D01*
X919500Y223700D02*X920000Y224200D01*
X917800Y225200D02*Y224200D01*
X916500Y225700D02*X917300D01*
X918300D02*X919500D01*
X918300D02*X917800Y225200D01*
X917300Y225700D02*X917800Y225200D01*
X916800Y226900D02*X916000Y227700D01*
X920000D01*
Y228400D02*Y226900D01*
X919500Y229600D02*X920000Y230100D01*
X916500Y229600D02*X919500D01*
X916500D02*X916000Y230100D01*
Y231100D02*Y230100D01*
Y231100D02*X916500Y231600D01*
X919500D01*
X920000Y231100D02*X919500Y231600D01*
X920000Y231100D02*Y230100D01*
X919000Y229600D02*X917000Y231600D01*
X916600Y269300D02*Y268000D01*
X917300Y270000D02*X916600Y269300D01*
X917300Y270000D02*X919900D01*
X920600Y269300D01*
Y268000D01*
X919800Y266800D02*X920600Y266000D01*
X916600D02*X920600D01*
X916600Y266800D02*Y265300D01*
X917100Y264100D02*X916600Y263600D01*
X917100Y264100D02*X920100D01*
X920600Y263600D01*
Y262600D01*
X920100Y262100D01*
X917100D02*X920100D01*
X916600Y262600D02*X917100Y262100D01*
X916600Y263600D02*Y262600D01*
X917600Y264100D02*X919600Y262100D01*
X918100Y260900D02*X920600Y258900D01*
X918100Y260900D02*Y258400D01*
X916600Y258900D02*X920600D01*
X668000Y56000D02*X670000D01*
X668000D02*X667500Y56500D01*
Y57500D02*Y56500D01*
X668000Y58000D02*X667500Y57500D01*
X668000Y58000D02*X669500D01*
Y60000D02*Y56000D01*
X668700Y58000D02*X667500Y60000D01*
X666300Y56500D02*X665800Y56000D01*
X664300D02*X665800D01*
X664300D02*X663800Y56500D01*
Y57500D02*Y56500D01*
X666300Y60000D02*X663800Y57500D01*
Y60000D02*X666300D01*
X662600Y56800D02*X661800Y56000D01*
Y60000D02*Y56000D01*
X661100Y60000D02*X662600D01*
X659900Y58500D02*X657900Y56000D01*
X657400Y58500D02*X659900D01*
X657900Y60000D02*Y56000D01*
X743000D02*X745000D01*
X743000D02*X742500Y56500D01*
Y57500D02*Y56500D01*
X743000Y58000D02*X742500Y57500D01*
X743000Y58000D02*X744500D01*
Y60000D02*Y56000D01*
X743700Y58000D02*X742500Y60000D01*
X741300Y56500D02*X740800Y56000D01*
X739300D02*X740800D01*
X739300D02*X738800Y56500D01*
Y57500D02*Y56500D01*
X741300Y60000D02*X738800Y57500D01*
Y60000D02*X741300D01*
X737600Y56800D02*X736800Y56000D01*
Y60000D02*Y56000D01*
X736100Y60000D02*X737600D01*
X733400Y56000D02*X732900Y56500D01*
X733400Y56000D02*X734400D01*
X734900Y56500D02*X734400Y56000D01*
X734900Y59500D02*Y56500D01*
Y59500D02*X734400Y60000D01*
X733400Y57800D02*X732900Y58300D01*
X733400Y57800D02*X734900D01*
X733400Y60000D02*X734400D01*
X733400D02*X732900Y59500D01*
Y58300D01*
X743000Y68500D02*X745000D01*
X743000D02*X742500Y69000D01*
Y70000D02*Y69000D01*
X743000Y70500D02*X742500Y70000D01*
X743000Y70500D02*X744500D01*
Y72500D02*Y68500D01*
X743700Y70500D02*X742500Y72500D01*
X741300Y69000D02*X740800Y68500D01*
X739300D02*X740800D01*
X739300D02*X738800Y69000D01*
Y70000D02*Y69000D01*
X741300Y72500D02*X738800Y70000D01*
Y72500D02*X741300D01*
X737600Y69300D02*X736800Y68500D01*
Y72500D02*Y68500D01*
X736100Y72500D02*X737600D01*
X732900Y68500D02*X734900D01*
Y70500D02*Y68500D01*
Y70500D02*X734400Y70000D01*
X733400D02*X734400D01*
X733400D02*X732900Y70500D01*
Y72000D02*Y70500D01*
X733400Y72500D02*X732900Y72000D01*
X733400Y72500D02*X734400D01*
X734900Y72000D02*X734400Y72500D01*
X713000Y75000D02*X716000D01*
X716500Y74500D01*
Y73500D01*
X716000Y73000D01*
X713500D02*X716000D01*
X712500Y74000D02*X713500Y73000D01*
X712500Y74500D02*Y74000D01*
X713000Y75000D02*X712500Y74500D01*
X714000Y74000D02*X712500Y73000D01*
X716000Y71800D02*X716500Y71300D01*
Y69800D01*
X716000Y69300D01*
X715000D02*X716000D01*
X712500Y71800D02*X715000Y69300D01*
X712500Y71800D02*Y69300D01*
X713000Y68100D02*X712500Y67600D01*
X713000Y68100D02*X716000D01*
X716500Y67600D01*
Y66600D01*
X716000Y66100D01*
X713000D02*X716000D01*
X712500Y66600D02*X713000Y66100D01*
X712500Y67600D02*Y66600D01*
X713500Y68100D02*X715500Y66100D01*
X712500Y64400D02*X716500Y62400D01*
Y64900D02*Y62400D01*
X660000Y76500D02*X662000D01*
X662500Y76000D01*
Y75000D01*
X662000Y74500D02*X662500Y75000D01*
X660500Y74500D02*X662000D01*
X660500Y76500D02*Y72500D01*
X661300Y74500D02*X662500Y72500D01*
X663700Y76000D02*X664200Y76500D01*
X665700D01*
X666200Y76000D01*
Y75000D01*
X663700Y72500D02*X666200Y75000D01*
X663700Y72500D02*X666200D01*
X667400Y75700D02*X668200Y76500D01*
Y72500D01*
X667400D02*X668900D01*
X670100Y76000D02*X670600Y76500D01*
X671600D01*
X672100Y76000D01*
X671600Y72500D02*X672100Y73000D01*
X670600Y72500D02*X671600D01*
X670100Y73000D02*X670600Y72500D01*
Y74700D02*X671600D01*
X672100Y76000D02*Y75200D01*
Y74200D02*Y73000D01*
Y74200D02*X671600Y74700D01*
X672100Y75200D02*X671600Y74700D01*
X630000Y57000D02*Y54000D01*
X629500Y53500D01*
X628500D02*X629500D01*
X628500D02*X628000Y54000D01*
Y56500D02*Y54000D01*
X629000Y57500D02*X628000Y56500D01*
X629000Y57500D02*X629500D01*
X630000Y57000D02*X629500Y57500D01*
X629000Y56000D02*X628000Y57500D01*
X626800Y54000D02*X626300Y53500D01*
X624800D02*X626300D01*
X624800D02*X624300Y54000D01*
Y55000D02*Y54000D01*
X626800Y57500D02*X624300Y55000D01*
Y57500D02*X626800D01*
X623100Y57000D02*X622600Y57500D01*
X623100Y57000D02*Y54000D01*
X622600Y53500D01*
X621600D02*X622600D01*
X621600D02*X621100Y54000D01*
Y57000D02*Y54000D01*
X621600Y57500D02*X621100Y57000D01*
X621600Y57500D02*X622600D01*
X623100Y56500D02*X621100Y54500D01*
X619900Y57000D02*X619400Y57500D01*
X619900Y57000D02*Y56200D01*
X619200Y55500D01*
X618600D02*X619200D01*
X618600D02*X617900Y56200D01*
Y57000D02*Y56200D01*
X618400Y57500D02*X617900Y57000D01*
X618400Y57500D02*X619400D01*
X619900Y54800D02*X619200Y55500D01*
X619900Y54800D02*Y54000D01*
X619400Y53500D01*
X618400D02*X619400D01*
X618400D02*X617900Y54000D01*
Y54800D02*Y54000D01*
X618600Y55500D02*X617900Y54800D01*
X442500Y54500D02*Y51500D01*
X442000Y51000D01*
X441000D02*X442000D01*
X441000D02*X440500Y51500D01*
Y54000D02*Y51500D01*
X441500Y55000D02*X440500Y54000D01*
X441500Y55000D02*X442000D01*
X442500Y54500D02*X442000Y55000D01*
X441500Y53500D02*X440500Y55000D01*
X439300Y51500D02*X438800Y51000D01*
X437300D02*X438800D01*
X437300D02*X436800Y51500D01*
Y52500D02*Y51500D01*
X439300Y55000D02*X436800Y52500D01*
Y55000D02*X439300D01*
X435600Y54500D02*X435100Y55000D01*
X435600Y54500D02*Y51500D01*
X435100Y51000D01*
X434100D02*X435100D01*
X434100D02*X433600Y51500D01*
Y54500D02*Y51500D01*
X434100Y55000D02*X433600Y54500D01*
X434100Y55000D02*X435100D01*
X435600Y54000D02*X433600Y52000D01*
X430900Y51000D02*X430400Y51500D01*
X430900Y51000D02*X431900D01*
X432400Y51500D02*X431900Y51000D01*
X432400Y54500D02*Y51500D01*
Y54500D02*X431900Y55000D01*
X430900Y52800D02*X430400Y53300D01*
X430900Y52800D02*X432400D01*
X430900Y55000D02*X431900D01*
X430900D02*X430400Y54500D01*
Y53300D01*
X247500Y52000D02*Y49000D01*
X247000Y48500D01*
X246000D02*X247000D01*
X246000D02*X245500Y49000D01*
Y51500D02*Y49000D01*
X246500Y52500D02*X245500Y51500D01*
X246500Y52500D02*X247000D01*
X247500Y52000D02*X247000Y52500D01*
X246500Y51000D02*X245500Y52500D01*
X244300Y49000D02*X243800Y48500D01*
X242300D02*X243800D01*
X242300D02*X241800Y49000D01*
Y50000D02*Y49000D01*
X244300Y52500D02*X241800Y50000D01*
Y52500D02*X244300D01*
X240600Y52000D02*X240100Y52500D01*
X240600Y52000D02*Y49000D01*
X240100Y48500D01*
X239100D02*X240100D01*
X239100D02*X238600Y49000D01*
Y52000D02*Y49000D01*
X239100Y52500D02*X238600Y52000D01*
X239100Y52500D02*X240100D01*
X240600Y51500D02*X238600Y49500D01*
X237400Y51000D02*X235400Y48500D01*
X234900Y51000D02*X237400D01*
X235400Y52500D02*Y48500D01*
X60000Y54500D02*Y51500D01*
X59500Y51000D01*
X58500D02*X59500D01*
X58500D02*X58000Y51500D01*
Y54000D02*Y51500D01*
X59000Y55000D02*X58000Y54000D01*
X59000Y55000D02*X59500D01*
X60000Y54500D02*X59500Y55000D01*
X59000Y53500D02*X58000Y55000D01*
X56800Y51500D02*X56300Y51000D01*
X54800D02*X56300D01*
X54800D02*X54300Y51500D01*
Y52500D02*Y51500D01*
X56800Y55000D02*X54300Y52500D01*
Y55000D02*X56800D01*
X53100Y54500D02*X52600Y55000D01*
X53100Y54500D02*Y51500D01*
X52600Y51000D01*
X51600D02*X52600D01*
X51600D02*X51100Y51500D01*
Y54500D02*Y51500D01*
X51600Y55000D02*X51100Y54500D01*
X51600Y55000D02*X52600D01*
X53100Y54000D02*X51100Y52000D01*
X49900Y51500D02*X49400Y51000D01*
X47900D02*X49400D01*
X47900D02*X47400Y51500D01*
Y52500D02*Y51500D01*
X49900Y55000D02*X47400Y52500D01*
Y55000D02*X49900D01*
X523000Y75000D02*X526000D01*
X526500Y74500D01*
Y73500D01*
X526000Y73000D01*
X523500D02*X526000D01*
X522500Y74000D02*X523500Y73000D01*
X522500Y74500D02*Y74000D01*
X523000Y75000D02*X522500Y74500D01*
X524000Y74000D02*X522500Y73000D01*
X526000Y71800D02*X526500Y71300D01*
Y69800D01*
X526000Y69300D01*
X525000D02*X526000D01*
X522500Y71800D02*X525000Y69300D01*
X522500Y71800D02*Y69300D01*
X523000Y68100D02*X522500Y67600D01*
X523000Y68100D02*X526000D01*
X526500Y67600D01*
Y66600D01*
X526000Y66100D01*
X523000D02*X526000D01*
X522500Y66600D02*X523000Y66100D01*
X522500Y67600D02*Y66600D01*
X523500Y68100D02*X525500Y66100D01*
X526500Y64900D02*Y62900D01*
X524500Y64900D02*X526500D01*
X524500D02*X525000Y64400D01*
Y63400D01*
X524500Y62900D01*
X523000D02*X524500D01*
X522500Y63400D02*X523000Y62900D01*
X522500Y64400D02*Y63400D01*
X523000Y64900D02*X522500Y64400D01*
X553000Y56000D02*X555000D01*
X553000D02*X552500Y56500D01*
Y57500D02*Y56500D01*
X553000Y58000D02*X552500Y57500D01*
X553000Y58000D02*X554500D01*
Y60000D02*Y56000D01*
X553700Y58000D02*X552500Y60000D01*
X551300Y56500D02*X550800Y56000D01*
X549300D02*X550800D01*
X549300D02*X548800Y56500D01*
Y57500D02*Y56500D01*
X551300Y60000D02*X548800Y57500D01*
Y60000D02*X551300D01*
X547600Y56800D02*X546800Y56000D01*
Y60000D02*Y56000D01*
X546100Y60000D02*X547600D01*
X544900Y56500D02*X544400Y56000D01*
X542900D02*X544400D01*
X542900D02*X542400Y56500D01*
Y57500D02*Y56500D01*
X544900Y60000D02*X542400Y57500D01*
Y60000D02*X544900D01*
X478000Y56000D02*X480000D01*
X478000D02*X477500Y56500D01*
Y57500D02*Y56500D01*
X478000Y58000D02*X477500Y57500D01*
X478000Y58000D02*X479500D01*
Y60000D02*Y56000D01*
X478700Y58000D02*X477500Y60000D01*
X476300Y56500D02*X475800Y56000D01*
X474300D02*X475800D01*
X474300D02*X473800Y56500D01*
Y57500D02*Y56500D01*
X476300Y60000D02*X473800Y57500D01*
Y60000D02*X476300D01*
X472600Y56800D02*X471800Y56000D01*
Y60000D02*Y56000D01*
X471100Y60000D02*X472600D01*
X469900Y59500D02*X469400Y60000D01*
X469900Y59500D02*Y56500D01*
X469400Y56000D01*
X468400D02*X469400D01*
X468400D02*X467900Y56500D01*
Y59500D02*Y56500D01*
X468400Y60000D02*X467900Y59500D01*
X468400Y60000D02*X469400D01*
X469900Y59000D02*X467900Y57000D01*
X363000Y56000D02*X365000D01*
X363000D02*X362500Y56500D01*
Y57500D02*Y56500D01*
X363000Y58000D02*X362500Y57500D01*
X363000Y58000D02*X364500D01*
Y60000D02*Y56000D01*
X363700Y58000D02*X362500Y60000D01*
X361300Y56500D02*X360800Y56000D01*
X359300D02*X360800D01*
X359300D02*X358800Y56500D01*
Y57500D02*Y56500D01*
X361300Y60000D02*X358800Y57500D01*
Y60000D02*X361300D01*
X357600Y59500D02*X357100Y60000D01*
X357600Y59500D02*Y56500D01*
X357100Y56000D01*
X356100D02*X357100D01*
X356100D02*X355600Y56500D01*
Y59500D02*Y56500D01*
X356100Y60000D02*X355600Y59500D01*
X356100Y60000D02*X357100D01*
X357600Y59000D02*X355600Y57000D01*
X354400Y59500D02*X353900Y60000D01*
X354400Y59500D02*Y58700D01*
X353700Y58000D01*
X353100D02*X353700D01*
X353100D02*X352400Y58700D01*
Y59500D02*Y58700D01*
X352900Y60000D02*X352400Y59500D01*
X352900Y60000D02*X353900D01*
X354400Y57300D02*X353700Y58000D01*
X354400Y57300D02*Y56500D01*
X353900Y56000D01*
X352900D02*X353900D01*
X352900D02*X352400Y56500D01*
Y57300D02*Y56500D01*
X353100Y58000D02*X352400Y57300D01*
X288000Y56000D02*X290000D01*
X288000D02*X287500Y56500D01*
Y57500D02*Y56500D01*
X288000Y58000D02*X287500Y57500D01*
X288000Y58000D02*X289500D01*
Y60000D02*Y56000D01*
X288700Y58000D02*X287500Y60000D01*
X286300Y56500D02*X285800Y56000D01*
X284300D02*X285800D01*
X284300D02*X283800Y56500D01*
Y57500D02*Y56500D01*
X286300Y60000D02*X283800Y57500D01*
Y60000D02*X286300D01*
X282600Y59500D02*X282100Y60000D01*
X282600Y59500D02*Y56500D01*
X282100Y56000D01*
X281100D02*X282100D01*
X281100D02*X280600Y56500D01*
Y59500D02*Y56500D01*
X281100Y60000D02*X280600Y59500D01*
X281100Y60000D02*X282100D01*
X282600Y59000D02*X280600Y57000D01*
X277900Y56000D02*X277400Y56500D01*
X277900Y56000D02*X278900D01*
X279400Y56500D02*X278900Y56000D01*
X279400Y59500D02*Y56500D01*
Y59500D02*X278900Y60000D01*
X277900Y57800D02*X277400Y58300D01*
X277900Y57800D02*X279400D01*
X277900Y60000D02*X278900D01*
X277900D02*X277400Y59500D01*
Y58300D01*
X100500Y56000D02*X102500D01*
X100500D02*X100000Y56500D01*
Y57500D02*Y56500D01*
X100500Y58000D02*X100000Y57500D01*
X100500Y58000D02*X102000D01*
Y60000D02*Y56000D01*
X101200Y58000D02*X100000Y60000D01*
X98800Y56500D02*X98300Y56000D01*
X96800D02*X98300D01*
X96800D02*X96300Y56500D01*
Y57500D02*Y56500D01*
X98800Y60000D02*X96300Y57500D01*
Y60000D02*X98800D01*
X95100Y59500D02*X94600Y60000D01*
X95100Y59500D02*Y56500D01*
X94600Y56000D01*
X93600D02*X94600D01*
X93600D02*X93100Y56500D01*
Y59500D02*Y56500D01*
X93600Y60000D02*X93100Y59500D01*
X93600Y60000D02*X94600D01*
X95100Y59000D02*X93100Y57000D01*
X91900Y56500D02*X91400Y56000D01*
X89900D02*X91400D01*
X89900D02*X89400Y56500D01*
Y57500D02*Y56500D01*
X91900Y60000D02*X89400Y57500D01*
Y60000D02*X91900D01*
X178000Y56000D02*X180000D01*
X178000D02*X177500Y56500D01*
Y57500D02*Y56500D01*
X178000Y58000D02*X177500Y57500D01*
X178000Y58000D02*X179500D01*
Y60000D02*Y56000D01*
X178700Y58000D02*X177500Y60000D01*
X176300Y56500D02*X175800Y56000D01*
X174300D02*X175800D01*
X174300D02*X173800Y56500D01*
Y57500D02*Y56500D01*
X176300Y60000D02*X173800Y57500D01*
Y60000D02*X176300D01*
X172600Y59500D02*X172100Y60000D01*
X172600Y59500D02*Y56500D01*
X172100Y56000D01*
X171100D02*X172100D01*
X171100D02*X170600Y56500D01*
Y59500D02*Y56500D01*
X171100Y60000D02*X170600Y59500D01*
X171100Y60000D02*X172100D01*
X172600Y59000D02*X170600Y57000D01*
X169400Y58500D02*X167400Y56000D01*
X166900Y58500D02*X169400D01*
X167400Y60000D02*Y56000D01*
X553000Y68500D02*X555000D01*
X553000D02*X552500Y69000D01*
Y70000D02*Y69000D01*
X553000Y70500D02*X552500Y70000D01*
X553000Y70500D02*X554500D01*
Y72500D02*Y68500D01*
X553700Y70500D02*X552500Y72500D01*
X551300Y69000D02*X550800Y68500D01*
X549300D02*X550800D01*
X549300D02*X548800Y69000D01*
Y70000D02*Y69000D01*
X551300Y72500D02*X548800Y70000D01*
Y72500D02*X551300D01*
X547600Y69300D02*X546800Y68500D01*
Y72500D02*Y68500D01*
X546100Y72500D02*X547600D01*
X544900Y69300D02*X544100Y68500D01*
Y72500D02*Y68500D01*
X543400Y72500D02*X544900D01*
X470000Y76500D02*X472000D01*
X472500Y76000D01*
Y75000D01*
X472000Y74500D02*X472500Y75000D01*
X470500Y74500D02*X472000D01*
X470500Y76500D02*Y72500D01*
X471300Y74500D02*X472500Y72500D01*
X473700Y76000D02*X474200Y76500D01*
X475700D01*
X476200Y76000D01*
Y75000D01*
X473700Y72500D02*X476200Y75000D01*
X473700Y72500D02*X476200D01*
X477400Y73000D02*X477900Y72500D01*
X477400Y76000D02*Y73000D01*
Y76000D02*X477900Y76500D01*
X478900D01*
X479400Y76000D01*
Y73000D01*
X478900Y72500D02*X479400Y73000D01*
X477900Y72500D02*X478900D01*
X477400Y73500D02*X479400Y75500D01*
X481100Y72500D02*X482600Y74500D01*
Y76000D02*Y74500D01*
X482100Y76500D02*X482600Y76000D01*
X481100Y76500D02*X482100D01*
X480600Y76000D02*X481100Y76500D01*
X480600Y76000D02*Y75000D01*
X481100Y74500D01*
X482600D01*
X363000Y68500D02*X365000D01*
X363000D02*X362500Y69000D01*
Y70000D02*Y69000D01*
X363000Y70500D02*X362500Y70000D01*
X363000Y70500D02*X364500D01*
Y72500D02*Y68500D01*
X363700Y70500D02*X362500Y72500D01*
X361300Y69000D02*X360800Y68500D01*
X359300D02*X360800D01*
X359300D02*X358800Y69000D01*
Y70000D02*Y69000D01*
X361300Y72500D02*X358800Y70000D01*
Y72500D02*X361300D01*
X357600Y72000D02*X357100Y72500D01*
X357600Y72000D02*Y69000D01*
X357100Y68500D01*
X356100D02*X357100D01*
X356100D02*X355600Y69000D01*
Y72000D02*Y69000D01*
X356100Y72500D02*X355600Y72000D01*
X356100Y72500D02*X357100D01*
X357600Y71500D02*X355600Y69500D01*
X353900Y72500D02*X351900Y68500D01*
X354400D01*
X333000Y75000D02*X336000D01*
X336500Y74500D01*
Y73500D01*
X336000Y73000D01*
X333500D02*X336000D01*
X332500Y74000D02*X333500Y73000D01*
X332500Y74500D02*Y74000D01*
X333000Y75000D02*X332500Y74500D01*
X334000Y74000D02*X332500Y73000D01*
X336000Y71800D02*X336500Y71300D01*
Y69800D01*
X336000Y69300D01*
X335000D02*X336000D01*
X332500Y71800D02*X335000Y69300D01*
X332500Y71800D02*Y69300D01*
X333000Y68100D02*X332500Y67600D01*
X333000Y68100D02*X336000D01*
X336500Y67600D01*
Y66600D01*
X336000Y66100D01*
X333000D02*X336000D01*
X332500Y66600D02*X333000Y66100D01*
X332500Y67600D02*Y66600D01*
X333500Y68100D02*X335500Y66100D01*
X336000Y64900D02*X336500Y64400D01*
Y63400D01*
X336000Y62900D01*
X332500Y63400D02*X333000Y62900D01*
X332500Y64400D02*Y63400D01*
X333000Y64900D02*X332500Y64400D01*
X334700D02*Y63400D01*
X335200Y62900D02*X336000D01*
X333000D02*X334200D01*
X334700Y63400D01*
X335200Y62900D02*X334700Y63400D01*
X280000Y76500D02*X282000D01*
X282500Y76000D01*
Y75000D01*
X282000Y74500D02*X282500Y75000D01*
X280500Y74500D02*X282000D01*
X280500Y76500D02*Y72500D01*
X281300Y74500D02*X282500Y72500D01*
X283700Y76000D02*X284200Y76500D01*
X285700D01*
X286200Y76000D01*
Y75000D01*
X283700Y72500D02*X286200Y75000D01*
X283700Y72500D02*X286200D01*
X287400Y73000D02*X287900Y72500D01*
X287400Y76000D02*Y73000D01*
Y76000D02*X287900Y76500D01*
X288900D01*
X289400Y76000D01*
Y73000D01*
X288900Y72500D02*X289400Y73000D01*
X287900Y72500D02*X288900D01*
X287400Y73500D02*X289400Y75500D01*
X290600Y76500D02*X292600D01*
X290600D02*Y74500D01*
X291100Y75000D01*
X292100D01*
X292600Y74500D01*
Y73000D01*
X292100Y72500D02*X292600Y73000D01*
X291100Y72500D02*X292100D01*
X290600Y73000D02*X291100Y72500D01*
X143000Y75000D02*X146000D01*
X146500Y74500D01*
Y73500D01*
X146000Y73000D01*
X143500D02*X146000D01*
X142500Y74000D02*X143500Y73000D01*
X142500Y74500D02*Y74000D01*
X143000Y75000D02*X142500Y74500D01*
X144000Y74000D02*X142500Y73000D01*
X146000Y71800D02*X146500Y71300D01*
Y69800D01*
X146000Y69300D01*
X145000D02*X146000D01*
X142500Y71800D02*X145000Y69300D01*
X142500Y71800D02*Y69300D01*
X143000Y68100D02*X142500Y67600D01*
X143000Y68100D02*X146000D01*
X146500Y67600D01*
Y66600D01*
X146000Y66100D01*
X143000D02*X146000D01*
X142500Y66600D02*X143000Y66100D01*
X142500Y67600D02*Y66600D01*
X143500Y68100D02*X145500Y66100D01*
X145700Y64900D02*X146500Y64100D01*
X142500D02*X146500D01*
X142500Y64900D02*Y63400D01*
X85000Y76500D02*X87000D01*
X87500Y76000D01*
Y75000D01*
X87000Y74500D02*X87500Y75000D01*
X85500Y74500D02*X87000D01*
X85500Y76500D02*Y72500D01*
X86300Y74500D02*X87500Y72500D01*
X88700Y76000D02*X89200Y76500D01*
X90700D01*
X91200Y76000D01*
Y75000D01*
X88700Y72500D02*X91200Y75000D01*
X88700Y72500D02*X91200D01*
X92400Y73000D02*X92900Y72500D01*
X92400Y76000D02*Y73000D01*
Y76000D02*X92900Y76500D01*
X93900D01*
X94400Y76000D01*
Y73000D01*
X93900Y72500D02*X94400Y73000D01*
X92900Y72500D02*X93900D01*
X92400Y73500D02*X94400Y75500D01*
X95600Y75700D02*X96400Y76500D01*
Y72500D01*
X95600D02*X97100D01*
X178000Y68500D02*X180000D01*
X178000D02*X177500Y69000D01*
Y70000D02*Y69000D01*
X178000Y70500D02*X177500Y70000D01*
X178000Y70500D02*X179500D01*
Y72500D02*Y68500D01*
X178700Y70500D02*X177500Y72500D01*
X176300Y69000D02*X175800Y68500D01*
X174300D02*X175800D01*
X174300D02*X173800Y69000D01*
Y70000D02*Y69000D01*
X176300Y72500D02*X173800Y70000D01*
Y72500D02*X176300D01*
X172600Y72000D02*X172100Y72500D01*
X172600Y72000D02*Y69000D01*
X172100Y68500D01*
X171100D02*X172100D01*
X171100D02*X170600Y69000D01*
Y72000D02*Y69000D01*
X171100Y72500D02*X170600Y72000D01*
X171100Y72500D02*X172100D01*
X172600Y71500D02*X170600Y69500D01*
X169400Y69000D02*X168900Y68500D01*
X167900D02*X168900D01*
X167900D02*X167400Y69000D01*
X167900Y72500D02*X167400Y72000D01*
X167900Y72500D02*X168900D01*
X169400Y72000D02*X168900Y72500D01*
X167900Y70300D02*X168900D01*
X167400Y69800D02*Y69000D01*
Y72000D02*Y70800D01*
X167900Y70300D01*
X167400Y69800D02*X167900Y70300D01*
X815000Y91800D02*Y90500D01*
X815700Y92500D02*X815000Y91800D01*
X815700Y92500D02*X818300D01*
X819000Y91800D01*
Y90500D01*
X818200Y89300D02*X819000Y88500D01*
X815000D02*X819000D01*
X815000Y89300D02*Y87800D01*
X815500Y86600D02*X815000Y86100D01*
X815500Y86600D02*X818500D01*
X819000Y86100D01*
Y85100D01*
X818500Y84600D01*
X815500D02*X818500D01*
X815000Y85100D02*X815500Y84600D01*
X815000Y86100D02*Y85100D01*
X816000Y86600D02*X818000Y84600D01*
X818500Y83400D02*X819000Y82900D01*
Y81400D01*
X818500Y80900D01*
X817500D02*X818500D01*
X815000Y83400D02*X817500Y80900D01*
X815000Y83400D02*Y80900D01*
X836000Y82000D02*Y80000D01*
Y82000D02*X836500Y82500D01*
X837500D01*
X838000Y82000D02*X837500Y82500D01*
X838000Y82000D02*Y80500D01*
X836000D02*X840000D01*
X838000Y81300D02*X840000Y82500D01*
X836800Y83700D02*X836000Y84500D01*
X840000D01*
Y85200D02*Y83700D01*
X839500Y86400D02*X840000Y86900D01*
X836500Y86400D02*X839500D01*
X836500D02*X836000Y86900D01*
Y87900D02*Y86900D01*
Y87900D02*X836500Y88400D01*
X839500D01*
X840000Y87900D02*X839500Y88400D01*
X840000Y87900D02*Y86900D01*
X839000Y86400D02*X837000Y88400D01*
X836500Y89600D02*X836000Y90100D01*
Y91100D02*Y90100D01*
Y91100D02*X836500Y91600D01*
X840000Y91100D02*X839500Y91600D01*
X840000Y91100D02*Y90100D01*
X839500Y89600D02*X840000Y90100D01*
X837800Y91100D02*Y90100D01*
X836500Y91600D02*X837300D01*
X838300D02*X839500D01*
X838300D02*X837800Y91100D01*
X837300Y91600D02*X837800Y91100D01*
X840000Y175000D02*X844000D01*
X840000D02*Y173000D01*
X843200Y171800D02*X844000Y171000D01*
X840000D02*X844000D01*
X840000Y171800D02*Y170300D01*
X840500Y169100D02*X840000Y168600D01*
X840500Y169100D02*X843500D01*
X844000Y168600D01*
Y167600D01*
X843500Y167100D01*
X840500D02*X843500D01*
X840000Y167600D02*X840500Y167100D01*
X840000Y168600D02*Y167600D01*
X841000Y169100D02*X843000Y167100D01*
X843200Y165900D02*X844000Y165100D01*
X840000D02*X844000D01*
X840000Y165900D02*Y164400D01*
X846000Y100500D02*X850000D01*
X846000Y101800D02*X846700Y102500D01*
X849300D01*
X850000Y101800D02*X849300Y102500D01*
X850000Y101800D02*Y100000D01*
X846000Y101800D02*Y100000D01*
X846800Y103700D02*X846000Y104500D01*
X850000D01*
Y105200D02*Y103700D01*
X849500Y106400D02*X850000Y106900D01*
X846500Y106400D02*X849500D01*
X846500D02*X846000Y106900D01*
Y107900D02*Y106900D01*
Y107900D02*X846500Y108400D01*
X849500D01*
X850000Y107900D02*X849500Y108400D01*
X850000Y107900D02*Y106900D01*
X849000Y106400D02*X847000Y108400D01*
X846800Y109600D02*X846000Y110400D01*
X850000D01*
Y111100D02*Y109600D01*
X866500Y232500D02*Y230500D01*
X866000Y230000D01*
X865000D02*X866000D01*
X864500Y230500D02*X865000Y230000D01*
X864500Y232000D02*Y230500D01*
X862500Y232000D02*X866500D01*
X864500Y231200D02*X862500Y230000D01*
X866000Y228800D02*X866500Y228300D01*
Y227300D01*
X866000Y226800D01*
X862500Y227300D02*X863000Y226800D01*
X862500Y228300D02*Y227300D01*
X863000Y228800D02*X862500Y228300D01*
X864700D02*Y227300D01*
X865200Y226800D02*X866000D01*
X863000D02*X864200D01*
X864700Y227300D01*
X865200Y226800D02*X864700Y227300D01*
X863000Y225600D02*X862500Y225100D01*
X863000Y225600D02*X866000D01*
X866500Y225100D01*
Y224100D01*
X866000Y223600D01*
X863000D02*X866000D01*
X862500Y224100D02*X863000Y223600D01*
X862500Y225100D02*Y224100D01*
X863500Y225600D02*X865500Y223600D01*
X866500Y220900D02*X866000Y220400D01*
X866500Y221900D02*Y220900D01*
X866000Y222400D02*X866500Y221900D01*
X863000Y222400D02*X866000D01*
X863000D02*X862500Y221900D01*
X864700Y220900D02*X864200Y220400D01*
X864700Y222400D02*Y220900D01*
X862500Y221900D02*Y220900D01*
X863000Y220400D01*
X864200D01*
X856500Y232500D02*Y230500D01*
X856000Y230000D01*
X855000D02*X856000D01*
X854500Y230500D02*X855000Y230000D01*
X854500Y232000D02*Y230500D01*
X852500Y232000D02*X856500D01*
X854500Y231200D02*X852500Y230000D01*
X856000Y228800D02*X856500Y228300D01*
Y227300D01*
X856000Y226800D01*
X852500Y227300D02*X853000Y226800D01*
X852500Y228300D02*Y227300D01*
X853000Y228800D02*X852500Y228300D01*
X854700D02*Y227300D01*
X855200Y226800D02*X856000D01*
X853000D02*X854200D01*
X854700Y227300D01*
X855200Y226800D02*X854700Y227300D01*
X853000Y225600D02*X852500Y225100D01*
X853000Y225600D02*X856000D01*
X856500Y225100D01*
Y224100D01*
X856000Y223600D01*
X853000D02*X856000D01*
X852500Y224100D02*X853000Y223600D01*
X852500Y225100D02*Y224100D01*
X853500Y225600D02*X855500Y223600D01*
X856500Y222400D02*Y220400D01*
X854500Y222400D02*X856500D01*
X854500D02*X855000Y221900D01*
Y220900D01*
X854500Y220400D01*
X853000D02*X854500D01*
X852500Y220900D02*X853000Y220400D01*
X852500Y221900D02*Y220900D01*
X853000Y222400D02*X852500Y221900D01*
X846500Y232500D02*Y230500D01*
X846000Y230000D01*
X845000D02*X846000D01*
X844500Y230500D02*X845000Y230000D01*
X844500Y232000D02*Y230500D01*
X842500Y232000D02*X846500D01*
X844500Y231200D02*X842500Y230000D01*
X846000Y228800D02*X846500Y228300D01*
Y227300D01*
X846000Y226800D01*
X842500Y227300D02*X843000Y226800D01*
X842500Y228300D02*Y227300D01*
X843000Y228800D02*X842500Y228300D01*
X844700D02*Y227300D01*
X845200Y226800D02*X846000D01*
X843000D02*X844200D01*
X844700Y227300D01*
X845200Y226800D02*X844700Y227300D01*
X843000Y225600D02*X842500Y225100D01*
X843000Y225600D02*X846000D01*
X846500Y225100D01*
Y224100D01*
X846000Y223600D01*
X843000D02*X846000D01*
X842500Y224100D02*X843000Y223600D01*
X842500Y225100D02*Y224100D01*
X843500Y225600D02*X845500Y223600D01*
X844000Y222400D02*X846500Y220400D01*
X844000Y222400D02*Y219900D01*
X842500Y220400D02*X846500D01*
X836500Y232500D02*Y230500D01*
X836000Y230000D01*
X835000D02*X836000D01*
X834500Y230500D02*X835000Y230000D01*
X834500Y232000D02*Y230500D01*
X832500Y232000D02*X836500D01*
X834500Y231200D02*X832500Y230000D01*
X836000Y228800D02*X836500Y228300D01*
Y227300D01*
X836000Y226800D01*
X832500Y227300D02*X833000Y226800D01*
X832500Y228300D02*Y227300D01*
X833000Y228800D02*X832500Y228300D01*
X834700D02*Y227300D01*
X835200Y226800D02*X836000D01*
X833000D02*X834200D01*
X834700Y227300D01*
X835200Y226800D02*X834700Y227300D01*
X833000Y225600D02*X832500Y225100D01*
X833000Y225600D02*X836000D01*
X836500Y225100D01*
Y224100D01*
X836000Y223600D01*
X833000D02*X836000D01*
X832500Y224100D02*X833000Y223600D01*
X832500Y225100D02*Y224100D01*
X833500Y225600D02*X835500Y223600D01*
X836000Y222400D02*X836500Y221900D01*
Y220900D01*
X836000Y220400D01*
X832500Y220900D02*X833000Y220400D01*
X832500Y221900D02*Y220900D01*
X833000Y222400D02*X832500Y221900D01*
X834700D02*Y220900D01*
X835200Y220400D02*X836000D01*
X833000D02*X834200D01*
X834700Y220900D01*
X835200Y220400D02*X834700Y220900D01*
X826500Y232500D02*Y230500D01*
X826000Y230000D01*
X825000D02*X826000D01*
X824500Y230500D02*X825000Y230000D01*
X824500Y232000D02*Y230500D01*
X822500Y232000D02*X826500D01*
X824500Y231200D02*X822500Y230000D01*
X826000Y228800D02*X826500Y228300D01*
Y227300D01*
X826000Y226800D01*
X822500Y227300D02*X823000Y226800D01*
X822500Y228300D02*Y227300D01*
X823000Y228800D02*X822500Y228300D01*
X824700D02*Y227300D01*
X825200Y226800D02*X826000D01*
X823000D02*X824200D01*
X824700Y227300D01*
X825200Y226800D02*X824700Y227300D01*
X823000Y225600D02*X822500Y225100D01*
X823000Y225600D02*X826000D01*
X826500Y225100D01*
Y224100D01*
X826000Y223600D01*
X823000D02*X826000D01*
X822500Y224100D02*X823000Y223600D01*
X822500Y225100D02*Y224100D01*
X823500Y225600D02*X825500Y223600D01*
X826000Y222400D02*X826500Y221900D01*
Y220400D01*
X826000Y219900D01*
X825000D02*X826000D01*
X822500Y222400D02*X825000Y219900D01*
X822500Y222400D02*Y219900D01*
X846500Y322500D02*Y320500D01*
X846000Y320000D01*
X845000D02*X846000D01*
X844500Y320500D02*X845000Y320000D01*
X844500Y322000D02*Y320500D01*
X842500Y322000D02*X846500D01*
X844500Y321200D02*X842500Y320000D01*
X846000Y318800D02*X846500Y318300D01*
Y317300D01*
X846000Y316800D01*
X842500Y317300D02*X843000Y316800D01*
X842500Y318300D02*Y317300D01*
X843000Y318800D02*X842500Y318300D01*
X844700D02*Y317300D01*
X845200Y316800D02*X846000D01*
X843000D02*X844200D01*
X844700Y317300D01*
X845200Y316800D02*X844700Y317300D01*
X843000Y315600D02*X842500Y315100D01*
X843000Y315600D02*X846000D01*
X846500Y315100D01*
Y314100D01*
X846000Y313600D01*
X843000D02*X846000D01*
X842500Y314100D02*X843000Y313600D01*
X842500Y315100D02*Y314100D01*
X843500Y315600D02*X845500Y313600D01*
X843000Y312400D02*X842500Y311900D01*
X843000Y312400D02*X843800D01*
X844500Y311700D01*
Y311100D01*
X843800Y310400D01*
X843000D02*X843800D01*
X842500Y310900D02*X843000Y310400D01*
X842500Y311900D02*Y310900D01*
X845200Y312400D02*X844500Y311700D01*
X845200Y312400D02*X846000D01*
X846500Y311900D01*
Y310900D01*
X846000Y310400D01*
X845200D02*X846000D01*
X844500Y311100D02*X845200Y310400D01*
X856500Y322500D02*Y320500D01*
X856000Y320000D01*
X855000D02*X856000D01*
X854500Y320500D02*X855000Y320000D01*
X854500Y322000D02*Y320500D01*
X852500Y322000D02*X856500D01*
X854500Y321200D02*X852500Y320000D01*
X856000Y318800D02*X856500Y318300D01*
Y317300D01*
X856000Y316800D01*
X852500Y317300D02*X853000Y316800D01*
X852500Y318300D02*Y317300D01*
X853000Y318800D02*X852500Y318300D01*
X854700D02*Y317300D01*
X855200Y316800D02*X856000D01*
X853000D02*X854200D01*
X854700Y317300D01*
X855200Y316800D02*X854700Y317300D01*
X853000Y315600D02*X852500Y315100D01*
X853000Y315600D02*X856000D01*
X856500Y315100D01*
Y314100D01*
X856000Y313600D01*
X853000D02*X856000D01*
X852500Y314100D02*X853000Y313600D01*
X852500Y315100D02*Y314100D01*
X853500Y315600D02*X855500Y313600D01*
X852500Y311900D02*X856500Y309900D01*
Y312400D02*Y309900D01*
X836500Y322500D02*Y320500D01*
X836000Y320000D01*
X835000D02*X836000D01*
X834500Y320500D02*X835000Y320000D01*
X834500Y322000D02*Y320500D01*
X832500Y322000D02*X836500D01*
X834500Y321200D02*X832500Y320000D01*
X836000Y318800D02*X836500Y318300D01*
Y317300D01*
X836000Y316800D01*
X832500Y317300D02*X833000Y316800D01*
X832500Y318300D02*Y317300D01*
X833000Y318800D02*X832500Y318300D01*
X834700D02*Y317300D01*
X835200Y316800D02*X836000D01*
X833000D02*X834200D01*
X834700Y317300D01*
X835200Y316800D02*X834700Y317300D01*
X833000Y315600D02*X832500Y315100D01*
X833000Y315600D02*X836000D01*
X836500Y315100D01*
Y314100D01*
X836000Y313600D01*
X833000D02*X836000D01*
X832500Y314100D02*X833000Y313600D01*
X832500Y315100D02*Y314100D01*
X833500Y315600D02*X835500Y313600D01*
X832500Y311900D02*X834500Y310400D01*
X836000D01*
X836500Y310900D02*X836000Y310400D01*
X836500Y311900D02*Y310900D01*
X836000Y312400D02*X836500Y311900D01*
X835000Y312400D02*X836000D01*
X835000D02*X834500Y311900D01*
Y310400D01*
X815000Y326200D02*Y323200D01*
X814500Y322700D01*
X813500D02*X814500D01*
X813500D02*X813000Y323200D01*
Y325700D02*Y323200D01*
X814000Y326700D02*X813000Y325700D01*
X814000Y326700D02*X814500D01*
X815000Y326200D02*X814500Y326700D01*
X814000Y325200D02*X813000Y326700D01*
X811800Y323200D02*X811300Y322700D01*
X809800D02*X811300D01*
X809800D02*X809300Y323200D01*
Y324200D02*Y323200D01*
X811800Y326700D02*X809300Y324200D01*
Y326700D02*X811800D01*
X808100Y326200D02*X807600Y326700D01*
X808100Y326200D02*Y323200D01*
X807600Y322700D01*
X806600D02*X807600D01*
X806600D02*X806100Y323200D01*
Y326200D02*Y323200D01*
X806600Y326700D02*X806100Y326200D01*
X806600Y326700D02*X807600D01*
X808100Y325700D02*X806100Y323700D01*
X804400Y326700D02*X802900Y324700D01*
Y323200D01*
X803400Y322700D02*X802900Y323200D01*
X803400Y322700D02*X804400D01*
X804900Y323200D02*X804400Y322700D01*
X804900Y324200D02*Y323200D01*
Y324200D02*X804400Y324700D01*
X802900D02*X804400D01*
X791500Y325000D02*Y323000D01*
X791000Y322500D01*
X790000D02*X791000D01*
X789500Y323000D02*X790000Y322500D01*
X789500Y324500D02*Y323000D01*
X787500Y324500D02*X791500D01*
X789500Y323700D02*X787500Y322500D01*
X791000Y321300D02*X791500Y320800D01*
Y319800D01*
X791000Y319300D01*
X787500Y319800D02*X788000Y319300D01*
X787500Y320800D02*Y319800D01*
X788000Y321300D02*X787500Y320800D01*
X789700D02*Y319800D01*
X790200Y319300D02*X791000D01*
X788000D02*X789200D01*
X789700Y319800D01*
X790200Y319300D02*X789700Y319800D01*
X790700Y318100D02*X791500Y317300D01*
X787500D02*X791500D01*
X787500Y318100D02*Y316600D01*
X791000Y315400D02*X791500Y314900D01*
Y313400D01*
X791000Y312900D01*
X790000D02*X791000D01*
X787500Y315400D02*X790000Y312900D01*
X787500Y315400D02*Y312900D01*
M02*
