M48
INCH
T56C0.035
T55C0.120
T54C0.020
T53C0.050
T52C0.028
T51C0.030
T50C0.038
T49C0.042
%
T54
X085500Y010500
X085500Y006500
T52
X081250Y028750
X081250Y025750
X082250Y028750
X082250Y025750
X083250Y028750
X083250Y025750
X084250Y028750
X084250Y025750
X085250Y028750
X085250Y025750
X085500Y015000
X085500Y012000
X086250Y028750
X086250Y025750
X086500Y015000
X086500Y012000
X087250Y028750
X087250Y025750
X087500Y015000
X087500Y012000
X088250Y028750
X088250Y025750
X088500Y015000
X088500Y012000
X089250Y028750
X089250Y025750
X090250Y028750
X090250Y025750
T51
X081500Y007250
X081500Y006250
X086500Y016500
X088500Y016500
X089500Y013000
X090500Y013000
X091250Y026750
X091250Y025750
T56
X025750Y013000
X025750Y010500
X044500Y012500
X044500Y010500
X063250Y012500
X063250Y010500
X086250Y030500
X086250Y029750
X087250Y030500
X087250Y029750
X088250Y030500
X088250Y029750
X089250Y030500
X089250Y029750
X090000Y019250
X090000Y016500
T50
X007500Y007250
X007500Y006000
X011500Y007250
X011500Y006000
X015000Y007250
X015000Y006000
X019000Y007250
X019000Y006000
X026500Y007250
X026500Y006000
X030500Y007250
X030500Y006000
X034000Y007250
X034000Y006000
X038000Y007250
X038000Y006000
X045500Y007250
X045500Y006000
X049500Y007250
X049500Y006000
X053000Y007250
X053000Y006000
X057000Y007250
X057000Y006000
X064500Y007250
X064500Y006000
X068500Y007250
X068500Y006000
X072000Y007250
X072000Y006000
X076000Y007250
X076000Y006000
X079000Y033750
X079000Y029750
X082250Y024750
X082250Y020750
X083250Y033750
X083250Y029750
X083250Y024750
X083250Y020750
X084000Y010500
X084000Y006500
X084250Y033750
X084250Y029750
X084250Y024750
X084250Y020750
X085000Y018000
X085250Y033750
X085250Y029750
X085250Y024750
X085250Y020750
X086250Y024750
X086250Y020750
X086500Y010500
X086500Y006500
X088000Y023250
X088000Y022250
X089000Y023250
X089000Y022250
X089000Y018000
X090000Y023250
X090000Y022250
X090500Y010500
X090500Y006500
X091750Y024750
X091750Y020750
X093000Y024750
X093000Y020750
X094500Y028750
X094500Y024750
X094500Y022250
X094500Y021250
X094500Y020250
X094500Y019250
T49
X004500Y006500
X005500Y006500
X006500Y006500
X009500Y034060
X009500Y010440
X010500Y034060
X010500Y010440
X011500Y034060
X011500Y010440
X012500Y034060
X012500Y010440
X013250Y007750
X013250Y006750
X013250Y005750
X013500Y034060
X013500Y010440
X023500Y006500
X024500Y006500
X025500Y006500
X028500Y034060
X028500Y010440
X029500Y034060
X029500Y010440
X030500Y034060
X030500Y010440
X031500Y034060
X031500Y010440
X032250Y007750
X032250Y006750
X032250Y005750
X032500Y034060
X032500Y010440
X042500Y006500
X043500Y006500
X044500Y006500
X047500Y034060
X047500Y010440
X048500Y034060
X048500Y010440
X049500Y034060
X049500Y010440
X050500Y034060
X050500Y010440
X051250Y007750
X051250Y006750
X051250Y005750
X051500Y034060
X051500Y010440
X061500Y006750
X062500Y006750
X063500Y006750
X066500Y034060
X066500Y010440
X067500Y034060
X067500Y010440
X068500Y034060
X068500Y010440
X069500Y034060
X069500Y010440
X070250Y007750
X070250Y006750
X070250Y005750
X070500Y034060
X070500Y010440
X080000Y033750
X081000Y033750
X082000Y033750
X086500Y008500
X087500Y008500
X088500Y008500
T53
X081500Y016000
X081500Y013000
T55
X091600Y007750
X092800Y009650
X094000Y007750
M30
