G04 start of page 3 for group 5 idx 5 *
G04 Title: Septimus, bottom *
G04 Creator: pcb 20140316 *
G04 CreationDate: Mon Jun  9 18:26:02 2014 UTC *
G04 For: scheibler *
G04 Format: Gerber/RS-274X *
G04 PCB-Dimensions (mil): 10000.00 4000.00 *
G04 PCB-Coordinate-Origin: lower left *
%MOIN*%
%FSLAX25Y25*%
%LNBOTTOM*%
%ADD47C,0.1200*%
%ADD46C,0.0280*%
%ADD45C,0.0380*%
%ADD44C,0.0420*%
%ADD43C,0.0350*%
%ADD42C,0.1700*%
%ADD41C,0.0500*%
%ADD40C,0.0800*%
%ADD39C,0.0550*%
%ADD38C,0.0600*%
%ADD37C,0.0680*%
%ADD36C,0.0001*%
%ADD35C,0.0720*%
%ADD34C,0.0300*%
%ADD33C,0.0200*%
%ADD32C,0.0400*%
%ADD31C,0.0250*%
%ADD30C,0.0100*%
G54D30*X515000Y340600D02*Y352500D01*
X510000Y357500D01*
X520600Y335000D02*X515000Y340600D01*
X585000Y335000D02*X520600D01*
X587500Y332500D02*X507500D01*
X505000Y335000D01*
X590000Y330000D02*X500000D01*
X495000Y335000D01*
X505000Y352500D02*X502500Y355000D01*
X495000Y350000D02*X492500Y352500D01*
X505000D02*Y335000D01*
X495000Y350000D02*Y335000D01*
X592500Y327500D02*X492500D01*
X595000Y325000D02*X485000D01*
X705000Y340600D02*X760600D01*
X759400D02*X773100D01*
X702500Y332500D02*X775000D01*
X705000Y352500D02*X700000Y357500D01*
X695000Y352500D02*X692500Y355000D01*
X695000Y340000D02*X702500Y332500D01*
X705000Y340600D02*Y352500D01*
X695000Y340600D02*Y352500D01*
X685000Y340600D02*Y350000D01*
X682500Y352500D01*
X685000Y340000D02*Y337500D01*
X697500Y325000D02*X780000D01*
X700000Y357500D02*X607500D01*
X692500Y355000D02*X610000D01*
X682500Y352500D02*X612500D01*
X607500Y357500D02*X585000Y335000D01*
X610000Y355000D02*X587500Y332500D01*
X612500Y352500D02*X590000Y330000D01*
X615000Y350000D02*X592500Y327500D01*
X617500Y347500D02*X595000Y325000D01*
X675000Y347500D02*X672500Y350000D01*
X665000Y340600D02*Y345000D01*
X662500Y347500D01*
X672500Y350000D02*X615000D01*
X662500Y347500D02*X617500D01*
X685000Y337500D02*X697500Y325000D01*
X790000Y337500D02*Y340000D01*
Y337500D02*Y342500D01*
X775000Y332500D02*X792500Y350000D01*
X773100Y340600D02*X787500Y355000D01*
X852500Y345000D02*Y337500D01*
X842500Y342500D02*Y337500D01*
Y342500D02*X835000Y350000D01*
X852500Y345000D02*X842500Y355000D01*
X790000Y342500D02*X792500Y345000D01*
X807500D01*
X792500Y350000D02*X835000D01*
X787500Y355000D02*X842500D01*
X807500Y345000D02*X810000Y342500D01*
Y337500D01*
X820000D02*X830000D01*
X675000Y347500D02*Y307500D01*
X665000Y340000D02*Y310000D01*
X717500Y147500D02*X762500Y192500D01*
X725000Y147500D02*X765000Y187500D01*
X732500Y147500D02*X767500Y182500D01*
X717500Y147500D02*Y100000D01*
X725000Y97500D02*Y147500D01*
X732500Y97500D02*Y147500D01*
G54D31*X697500Y125000D02*X705000Y117500D01*
Y104400D01*
G54D30*X675000Y307500D02*X775000Y207500D01*
X665000Y310000D02*X777500Y197500D01*
X780000Y325000D02*X790000Y315000D01*
Y297500D01*
G54D32*X800000Y235000D02*X812500Y222500D01*
G54D30*X822500Y207500D02*X775000D01*
X827500Y197500D02*X777500D01*
X835000Y192500D02*X762500D01*
X840000Y182500D02*X847500Y190000D01*
X852500D01*
X837500Y187500D02*X852500Y202500D01*
Y207500D01*
X767500Y182500D02*X840000D01*
X765000Y187500D02*X837500D01*
G54D32*X800000Y235000D02*Y337500D01*
X812500Y287500D02*X800000D01*
G54D30*X832500Y297500D02*Y287500D01*
X325000Y340600D02*Y352500D01*
X320000Y357500D01*
X315000Y352500D02*X312500Y355000D01*
X305000Y350000D02*X302500Y352500D01*
X315000D02*Y335000D01*
X305000Y350000D02*Y335000D01*
X395000D02*X330600D01*
X397500Y332500D02*X317500D01*
X400000Y330000D02*X310000D01*
X295000Y340600D02*Y347500D01*
X330600Y335000D02*X325000Y340600D01*
X317500Y332500D02*X315000Y335000D01*
X310000Y330000D02*X305000Y335000D01*
X295000D02*Y340000D01*
X285000Y345000D02*Y335000D01*
X402500Y327500D02*X302500D01*
X295000Y335000D01*
Y325000D02*X285000Y335000D01*
X405000Y325000D02*X295000D01*
X420000Y355000D02*X397500Y332500D01*
X422500Y352500D02*X400000Y330000D01*
X425000Y350000D02*X402500Y327500D01*
X427500Y347500D02*X405000Y325000D01*
X417500Y357500D02*X395000Y335000D01*
X510000Y357500D02*X417500D01*
X502500Y355000D02*X420000D01*
X485000Y347500D02*X482500Y350000D01*
X475000Y345000D02*X472500Y347500D01*
X492500Y352500D02*X422500D01*
X482500Y350000D02*X425000D01*
X472500Y347500D02*X427500D01*
X492500Y327500D02*X485000Y335000D01*
Y347500D02*Y335000D01*
Y325000D02*X475000Y335000D01*
Y345000D02*Y335000D01*
X225000Y357500D02*X200000Y332500D01*
X143100D01*
X135000Y340600D01*
X227500Y355000D02*X202500Y330000D01*
X130000D01*
X205000Y327500D02*X122500D01*
X207500Y325000D02*X112500D01*
X210000Y322500D02*X102500D01*
X95000Y330000D01*
X130000D02*X125000Y335000D01*
X122500Y327500D02*X115000Y335000D01*
X112500Y325000D02*X105000Y332500D01*
X125000Y335000D02*Y340600D01*
X115000Y335000D02*Y340600D01*
X105000Y332500D02*Y340600D01*
X95000Y330000D02*Y340600D01*
X230000Y352500D02*X205000Y327500D01*
X232500Y350000D02*X207500Y325000D01*
X235000Y347500D02*X210000Y322500D01*
X320000Y357500D02*X225000D01*
X312500Y355000D02*X227500D01*
X302500Y352500D02*X230000D01*
X295000Y347500D02*X292500Y350000D01*
X232500D01*
X282500Y347500D02*X235000D01*
X285000Y345000D02*X282500Y347500D01*
X217500Y112500D02*X286900D01*
X217500Y117500D02*X297500D01*
X217500Y122500D02*X302500D01*
G54D31*X245000Y92500D02*X257500Y105000D01*
X284400D01*
X285000Y104400D01*
G54D30*X295000D02*Y95000D01*
G54D31*X255000Y65000D02*X260000D01*
X265000Y60000D01*
Y72500D02*Y70000D01*
X260000Y65000D01*
X230000Y85000D02*X120000D01*
X245000Y65000D02*Y92500D01*
G54D30*X110000Y90000D02*X195000D01*
X120000Y92500D02*X192500D01*
X195000Y90000D02*X217500Y112500D01*
X192500Y92500D02*X217500Y117500D01*
X125000Y97500D02*X127500Y95000D01*
G54D31*X132500Y112500D02*X135000Y110000D01*
Y104400D01*
G54D30*X127500Y95000D02*X190000D01*
X217500Y122500D01*
G54D31*X120000Y85000D02*X115000Y80000D01*
G54D30*X105000Y95000D02*X110000Y90000D01*
G54D31*X115000Y80000D02*Y72500D01*
X132500Y67500D02*X122500D01*
X115000Y60000D01*
X132500Y77500D02*X145000D01*
X150000Y72500D01*
Y60000D01*
X115000Y72500D02*X102500D01*
X95000Y65000D01*
Y55000D01*
X92500Y52500D01*
X94400Y105000D02*X95000Y104400D01*
G54D30*X105000D02*Y95000D01*
X115000Y104400D02*Y97500D01*
X120000Y92500D01*
X125000Y104400D02*Y97500D01*
G54D31*X95000Y104400D02*Y107500D01*
X100000Y112500D01*
X132500D01*
G54D30*X286900D02*X295000Y104400D01*
X297500Y117500D02*X305000Y110000D01*
X302500Y122500D02*X315000Y110000D01*
X305000D02*Y97500D01*
X315000Y110000D02*Y100000D01*
G54D31*X312500Y67500D02*X305000Y60000D01*
G54D30*X295000Y95000D02*X300000Y90000D01*
X305000Y97500D02*X310000Y92500D01*
X315000Y100000D02*X320000Y95000D01*
G54D31*X257500Y130000D02*X317500D01*
X325000Y122500D01*
Y104400D01*
G54D30*X410000Y112500D02*X482500D01*
X485000Y110000D01*
X407500Y115000D02*X490000D01*
X495000Y110000D01*
X405000Y117500D02*X497500D01*
X387500Y90000D02*X410000Y112500D01*
X385000Y92500D02*X407500Y115000D01*
X382500Y95000D02*X405000Y117500D01*
G54D31*X445000Y125000D02*X507500D01*
X420000Y85000D02*X310000D01*
G54D30*X300000Y90000D02*X387500D01*
X310000Y92500D02*X385000D01*
X320000Y95000D02*X382500D01*
X490000Y90000D02*X577500D01*
X510000Y95000D02*X572500D01*
G54D31*X755000Y47500D02*X135000D01*
X190000Y60000D02*Y47500D01*
X322500Y67500D02*X312500D01*
X322500Y57500D02*Y47500D01*
X380000Y60000D02*Y47500D01*
X512500Y57500D02*Y47500D01*
X570000Y60000D02*Y47500D01*
X702500Y57500D02*Y47500D01*
X322500Y77500D02*X335000D01*
X340000Y72500D01*
Y60000D01*
X92500Y52500D02*X47500D01*
X45000Y55000D01*
Y65000D01*
X65000D02*X70000D01*
X75000Y60000D01*
Y72500D02*Y70000D01*
X70000Y65000D01*
X55000D02*Y92500D01*
X67500Y105000D01*
X94400D01*
X495000Y80000D02*Y72500D01*
X480000D01*
X475000Y67500D01*
Y55000D01*
X472500Y52500D01*
X430000D01*
X425000Y57500D01*
X445000Y65000D02*X447500D01*
X455000Y72500D01*
Y60000D02*Y62500D01*
X450000Y67500D01*
X425000Y57500D02*Y80000D01*
X420000Y85000D01*
X435000Y65000D02*Y95000D01*
X445000Y105000D01*
X474400D01*
X475000Y104400D01*
X310000Y85000D02*X305000Y80000D01*
Y72500D01*
X282500Y52500D02*X237500D01*
X235000Y55000D01*
Y80000D01*
X230000Y85000D01*
X305000Y72500D02*X292500D01*
X285000Y65000D01*
Y55000D01*
X282500Y52500D01*
X135000Y47500D02*X132500Y50000D01*
Y57500D01*
G54D30*X485000Y104400D02*Y107500D01*
Y110000D02*Y95000D01*
X490000Y90000D01*
X495000Y110000D02*Y97500D01*
X500000Y92500D01*
X577500Y90000D02*X600000Y112500D01*
X500000Y92500D02*X575000D01*
X505000Y110000D02*Y100000D01*
X510000Y95000D01*
X575000Y92500D02*X597500Y115000D01*
X572500Y95000D02*X595000Y117500D01*
X600000Y112500D02*X672500D01*
X597500Y115000D02*X680000D01*
X595000Y117500D02*X687500D01*
G54D31*X632500Y105000D02*X664400D01*
G54D30*X675000Y110000D02*Y95000D01*
G54D31*X664400Y105000D02*X665000Y104400D01*
X690000Y85000D02*X685000Y80000D01*
Y72500D01*
G54D30*X675000Y95000D02*X680000Y90000D01*
G54D31*X685000Y72500D02*X670000D01*
X665000Y67500D02*Y55000D01*
X662500Y52500D02*X665000Y55000D01*
X662500Y52500D02*X617500D01*
X615000Y55000D01*
Y80000D01*
X610000Y85000D01*
X635000Y67500D02*X640000D01*
X625000D02*Y97500D01*
X632500Y105000D01*
X640000Y67500D02*X645000Y72500D01*
Y60000D02*Y62500D01*
X640000Y67500D01*
X632500Y125000D02*X697500D01*
G54D30*X672500Y112500D02*X675000Y110000D01*
X680000Y115000D02*X685000Y110000D01*
X687500Y117500D02*X695000Y110000D01*
Y100000D01*
X697500Y97500D01*
X715000D01*
X685000Y110000D02*Y102500D01*
X695000Y92500D01*
X680000Y90000D02*X725000D01*
X715000Y97500D02*X717500Y100000D01*
X695000Y92500D02*X720000D01*
X725000Y97500D01*
Y90000D02*X732500Y97500D01*
X497500Y117500D02*X505000Y110000D01*
G54D31*X610000Y85000D02*X500000D01*
X495000Y80000D01*
X512500Y67500D02*X502500D01*
X495000Y60000D01*
X512500Y77500D02*X525000D01*
X530000Y72500D01*
Y60000D01*
X507500Y125000D02*X515000Y117500D01*
Y104400D01*
G54D30*X832500Y202500D02*Y207500D01*
X827500Y197500D02*X832500Y202500D01*
X822500Y257500D02*Y247500D01*
X832500Y257500D02*Y247500D01*
X842500Y297500D02*Y287500D01*
X852500Y297500D02*Y287500D01*
X842500Y257500D02*Y247500D01*
X852500Y257500D02*Y247500D01*
X862500Y257500D02*Y247500D01*
G54D33*Y287500D02*Y297500D01*
G54D30*Y200000D02*Y207500D01*
G54D32*X945000Y222500D02*X952500D01*
X957500Y217500D01*
Y182500D01*
X955000Y180000D01*
X965000Y307500D02*Y87500D01*
X955000Y77500D01*
X940000D01*
X955000Y180000D02*X890000D01*
X942500D01*
X880000Y222500D02*Y202500D01*
X890000Y192500D01*
G54D30*Y222500D02*Y205000D01*
X895000Y215000D02*X897500Y212500D01*
X890000Y205000D02*X895000Y200000D01*
G54D32*X945000Y192500D02*X890000D01*
G54D30*X895000Y200000D02*X937500D01*
X940000Y202500D01*
X945000D01*
X917500Y207500D02*Y200000D01*
X897500Y212500D02*X907500D01*
X910000Y215000D01*
G54D31*X900000Y222500D02*X912500D01*
G54D30*X910000Y215000D02*X937500D01*
X940000Y212500D01*
X945000D01*
X930000Y207500D02*Y215000D01*
G54D32*X912500Y267500D02*X965000D01*
G54D31*X670000Y72500D02*X665000Y67500D01*
X685000Y60000D02*X692500Y67500D01*
X702500D01*
Y77500D02*X715000D01*
X720000Y72500D01*
Y60000D01*
X760000D02*Y52500D01*
X770000Y85000D02*X690000D01*
X760000Y52500D02*X755000Y47500D01*
G54D32*X815000Y62500D02*X762500D01*
X760000Y60000D01*
G54D31*X782500Y72500D02*X770000Y85000D01*
X822500Y72500D02*X782500D01*
G54D30*X875000Y120000D02*X885000Y130000D01*
X895000D01*
G54D34*X815000D02*X845000D01*
X855000Y120000D01*
G54D30*X812500Y117500D02*X805000Y125000D01*
Y137500D01*
X822500Y135000D02*X877500D01*
G54D34*X840000Y105000D02*Y90000D01*
X855000Y85000D02*Y120000D01*
G54D30*X865000D02*Y85000D01*
X847500D02*Y112500D01*
X842500Y117500D01*
X840000Y65000D02*Y60000D01*
G54D32*X827500Y50000D02*X815000Y62500D01*
G54D31*X822500Y72500D02*X840000Y90000D01*
Y77500D02*Y90000D01*
G54D30*X842500Y117500D02*X812500D01*
X840000Y60000D02*X845000Y55000D01*
G54D31*X855000Y65000D02*Y70000D01*
X850000Y75000D01*
X842500D01*
X840000Y77500D01*
G54D30*X865000Y67500D02*X847500Y85000D01*
X845000Y55000D02*X860000D01*
X865000Y60000D01*
Y67500D01*
G54D32*X905000Y65000D02*X892500D01*
X885000Y72500D01*
G54D34*X855000Y85000D02*X865000Y75000D01*
X870000D01*
X875000Y80000D01*
Y85000D02*Y80000D01*
G54D32*X827500Y50000D02*X930000D01*
X905000Y65000D02*Y50000D01*
X885000Y120000D02*X905000D01*
Y105000D02*X890000D01*
X885000Y100000D01*
Y72500D02*Y100000D01*
X940000Y77500D02*Y60000D01*
X930000Y50000D01*
X916000Y77500D02*Y89000D01*
X915000Y90000D01*
G54D30*X835000Y192500D02*X842500Y200000D01*
G54D32*X860000Y140000D02*X825000D01*
X815000Y150000D01*
Y160000D01*
G54D30*X805000Y137500D02*X810000Y142500D01*
X815000D01*
X822500Y135000D01*
X842500Y200000D02*Y207500D01*
G54D32*X880000Y222500D02*X812500D01*
G54D30*X852500Y190000D02*X862500Y200000D01*
X855000Y175000D02*Y150000D01*
G54D34*X865000Y175000D02*Y150000D01*
G54D30*X855000Y175000D02*X850000Y180000D01*
G54D34*X865000Y175000D02*X870000Y180000D01*
X890000D01*
G54D32*X905000Y160000D02*X900000Y165000D01*
X885000D01*
X875000Y150000D02*X865000D01*
Y145000D01*
X860000Y140000D01*
G54D30*X877500Y135000D02*X885000Y142500D01*
Y150000D01*
G54D32*X905000Y105000D02*Y160000D01*
X915000Y90000D02*Y180000D01*
G54D30*X902500Y280000D02*Y287500D01*
G54D33*X882500D02*Y297500D01*
X892500Y287500D02*Y297500D01*
G54D30*X880000Y277500D02*X900000D01*
X902500Y280000D01*
Y287500D02*X945000D01*
G54D32*X800000Y320000D02*X952500D01*
X965000Y307500D01*
G54D33*X872500Y287500D02*Y297500D01*
G54D31*X902500Y257500D02*X912500D01*
X917500Y252500D01*
Y247500D02*X945000D01*
G54D32*Y222500D02*Y247500D01*
G54D31*X912500Y222500D02*X917500Y227500D01*
Y252500D02*Y227500D01*
G54D30*X877500Y275000D02*X880000Y277500D01*
X882500Y262500D02*X885000Y265000D01*
X877500Y275000D02*Y235000D01*
X880000Y232500D01*
X882500Y257500D02*Y262500D01*
X885000Y265000D02*X895000D01*
X897500Y262500D01*
X892500Y257500D02*Y245000D01*
X897500Y262500D02*Y240000D01*
X872500Y257500D02*Y230000D01*
X875000Y227500D01*
X885000D01*
X890000Y222500D01*
X892500Y245000D02*X890000Y242500D01*
Y232500D01*
Y237500D01*
X897500Y240000D02*X900000Y237500D01*
Y232500D01*
X890000D02*X895000Y227500D01*
Y215000D01*
G54D35*X95000Y340600D03*
X105000D03*
G54D36*G36*
X91400Y108000D02*Y100800D01*
X98600D01*
Y108000D01*
X91400D01*
G37*
G54D35*X105000Y104400D03*
X115000D03*
X125000D03*
X135000D03*
X115000Y340600D03*
X125000D03*
X135000D03*
G54D36*G36*
X128900Y61100D02*Y53900D01*
X136100D01*
Y61100D01*
X128900D01*
G37*
G54D35*X132500Y67500D03*
Y77500D03*
G54D36*G36*
X111600Y63400D02*Y56600D01*
X118400D01*
Y63400D01*
X111600D01*
G37*
G54D37*X115000Y72500D03*
G54D36*G36*
X421400Y68600D02*Y61400D01*
X428600D01*
Y68600D01*
X421400D01*
G37*
G54D35*X435000Y65000D03*
G54D36*G36*
X376600Y63400D02*Y56600D01*
X383400D01*
Y63400D01*
X376600D01*
G37*
G36*
Y75900D02*Y69100D01*
X383400D01*
Y75900D01*
X376600D01*
G37*
G54D35*X445000Y65000D03*
G54D37*X455000Y60000D03*
G54D36*G36*
X451600Y75900D02*Y69100D01*
X458400D01*
Y75900D01*
X451600D01*
G37*
G36*
X508900Y61100D02*Y53900D01*
X516100D01*
Y61100D01*
X508900D01*
G37*
G54D37*X530000Y60000D03*
G54D36*G36*
X491600Y63400D02*Y56600D01*
X498400D01*
Y63400D01*
X491600D01*
G37*
G54D35*X512500Y67500D03*
G54D37*X530000Y72500D03*
X495000D03*
G54D35*X512500Y77500D03*
G54D36*G36*
X471400Y108000D02*Y100800D01*
X478600D01*
Y108000D01*
X471400D01*
G37*
G54D35*X485000Y104400D03*
X495000D03*
X505000D03*
X515000D03*
G54D36*G36*
X566600Y63400D02*Y56600D01*
X573400D01*
Y63400D01*
X566600D01*
G37*
G36*
Y75900D02*Y69100D01*
X573400D01*
Y75900D01*
X566600D01*
G37*
G36*
X231400Y68600D02*Y61400D01*
X238600D01*
Y68600D01*
X231400D01*
G37*
G54D35*X245000Y65000D03*
X255000D03*
G54D37*X265000Y60000D03*
G54D36*G36*
X186600Y63400D02*Y56600D01*
X193400D01*
Y63400D01*
X186600D01*
G37*
G54D37*X150000Y60000D03*
G54D35*X322500Y77500D03*
G54D36*G36*
X281400Y108000D02*Y100800D01*
X288600D01*
Y108000D01*
X281400D01*
G37*
G54D35*X295000Y104400D03*
X305000D03*
X315000D03*
X325000D03*
G54D37*X340000Y60000D03*
Y72500D03*
G54D36*G36*
X318900Y61100D02*Y53900D01*
X326100D01*
Y61100D01*
X318900D01*
G37*
G54D35*X322500Y67500D03*
G54D36*G36*
X301600Y63400D02*Y56600D01*
X308400D01*
Y63400D01*
X301600D01*
G37*
G54D37*X305000Y72500D03*
G54D36*G36*
X261600Y75900D02*Y69100D01*
X268400D01*
Y75900D01*
X261600D01*
G37*
G36*
X186600D02*Y69100D01*
X193400D01*
Y75900D01*
X186600D01*
G37*
G54D37*X150000Y72500D03*
G54D36*G36*
X41400Y68600D02*Y61400D01*
X48600D01*
Y68600D01*
X41400D01*
G37*
G54D35*X55000Y65000D03*
X65000D03*
G54D37*X75000Y60000D03*
G54D36*G36*
X71600Y75900D02*Y69100D01*
X78400D01*
Y75900D01*
X71600D01*
G37*
G54D35*X285000Y340600D03*
X295000D03*
X305000D03*
X315000D03*
X325000D03*
X475000D03*
X485000D03*
X495000D03*
X505000D03*
X515000D03*
G54D36*G36*
X942000Y225500D02*Y219500D01*
X948000D01*
Y225500D01*
X942000D01*
G37*
G54D38*X945000Y212500D03*
Y202500D03*
Y192500D03*
G54D36*G36*
X926600Y210900D02*Y204100D01*
X933400D01*
Y210900D01*
X926600D01*
G37*
G54D37*X930000Y247500D03*
X917500D03*
X945000D03*
G54D36*G36*
X909750Y270250D02*Y264750D01*
X915250D01*
Y270250D01*
X909750D01*
G37*
G54D39*X912500Y257500D03*
G54D36*G36*
X914100Y210900D02*Y204100D01*
X920900D01*
Y210900D01*
X914100D01*
G37*
G36*
X941600Y290900D02*Y284100D01*
X948400D01*
Y290900D01*
X941600D01*
G37*
G36*
X899500Y290500D02*Y284500D01*
X905500D01*
Y290500D01*
X899500D01*
G37*
G54D38*X892500Y287500D03*
X882500D03*
X872500D03*
X862500D03*
X852500D03*
X842500D03*
X832500D03*
X822500D03*
G54D36*G36*
X859100Y250900D02*Y244100D01*
X865900D01*
Y250900D01*
X859100D01*
G37*
G36*
X849100D02*Y244100D01*
X855900D01*
Y250900D01*
X849100D01*
G37*
G36*
X839100D02*Y244100D01*
X845900D01*
Y250900D01*
X839100D01*
G37*
G54D38*X842500Y257500D03*
X852500D03*
G54D37*Y207500D03*
X842500D03*
X832500D03*
X822500D03*
G54D36*G36*
X829100Y250900D02*Y244100D01*
X835900D01*
Y250900D01*
X829100D01*
G37*
G36*
X819100D02*Y244100D01*
X825900D01*
Y250900D01*
X819100D01*
G37*
G54D38*X822500Y257500D03*
X832500D03*
G54D37*X862500Y207500D03*
G54D38*Y257500D03*
X872500D03*
X882500D03*
X892500D03*
X902500D03*
G54D36*G36*
X897000Y235500D02*Y229500D01*
X903000D01*
Y235500D01*
X897000D01*
G37*
G54D38*X900000Y222500D03*
X890000Y232500D03*
Y222500D03*
X880000D03*
Y232500D03*
G54D35*X665000Y340600D03*
X675000D03*
X685000D03*
X695000D03*
X705000D03*
G54D36*G36*
X796400Y341100D02*Y333900D01*
X803600D01*
Y341100D01*
X796400D01*
G37*
G54D35*X810000Y337500D03*
G54D36*G36*
X786600Y340900D02*Y334100D01*
X793400D01*
Y340900D01*
X786600D01*
G37*
G36*
X661400Y108000D02*Y100800D01*
X668600D01*
Y108000D01*
X661400D01*
G37*
G54D37*X645000Y60000D03*
G54D36*G36*
X641600Y75900D02*Y69100D01*
X648400D01*
Y75900D01*
X641600D01*
G37*
G36*
X611400Y71100D02*Y63900D01*
X618600D01*
Y71100D01*
X611400D01*
G37*
G54D35*X625000Y67500D03*
X635000D03*
X675000Y104400D03*
X685000D03*
G54D36*G36*
X681600Y63400D02*Y56600D01*
X688400D01*
Y63400D01*
X681600D01*
G37*
G54D37*X685000Y72500D03*
G54D35*X695000Y104400D03*
X705000D03*
G54D36*G36*
X756600Y75900D02*Y69100D01*
X763400D01*
Y75900D01*
X756600D01*
G37*
G54D35*X702500Y77500D03*
G54D36*G36*
X756600Y63400D02*Y56600D01*
X763400D01*
Y63400D01*
X756600D01*
G37*
G54D37*X720000Y60000D03*
Y72500D03*
G54D36*G36*
X698900Y61100D02*Y53900D01*
X706100D01*
Y61100D01*
X698900D01*
G37*
G54D35*X702500Y67500D03*
G54D36*G36*
X812000Y75500D02*Y69500D01*
X818000D01*
Y75500D01*
X812000D01*
G37*
G54D38*X815000Y62500D03*
G54D36*G36*
X839100Y340900D02*Y334100D01*
X845900D01*
Y340900D01*
X839100D01*
G37*
G36*
X849100D02*Y334100D01*
X855900D01*
Y340900D01*
X849100D01*
G37*
G54D37*X842500Y297500D03*
X852500D03*
G54D38*X812500Y287500D03*
G54D37*X832500Y297500D03*
G54D38*X812500Y257500D03*
G54D35*X820000Y337500D03*
G54D37*X790000Y297500D03*
G54D36*G36*
X829100Y340900D02*Y334100D01*
X835900D01*
Y340900D01*
X829100D01*
G37*
G36*
X846600Y183400D02*Y176600D01*
X853400D01*
Y183400D01*
X846600D01*
G37*
G36*
X852000Y123000D02*Y117000D01*
X858000D01*
Y123000D01*
X852000D01*
G37*
G54D38*X855000Y150000D03*
G54D36*G36*
X811000Y164000D02*Y156000D01*
X819000D01*
Y164000D01*
X811000D01*
G37*
G54D40*X815000Y130000D03*
G54D36*G36*
X901600Y108400D02*Y101600D01*
X908400D01*
Y108400D01*
X901600D01*
G37*
G36*
Y68400D02*Y61600D01*
X908400D01*
Y68400D01*
X901600D01*
G37*
G36*
X881400Y88600D02*Y81400D01*
X888600D01*
Y88600D01*
X881400D01*
G37*
G54D35*X875000Y85000D03*
X865000D03*
G54D37*Y105000D03*
Y65000D03*
G54D36*G36*
X836600Y68400D02*Y61600D01*
X843400D01*
Y68400D01*
X836600D01*
G37*
G54D37*X840000Y105000D03*
G54D36*G36*
X852500Y67500D02*Y62500D01*
X857500D01*
Y67500D01*
X852500D01*
G37*
G54D41*X855000Y105000D03*
G54D42*X928000Y96500D03*
X940000Y77500D03*
X916000D03*
G54D39*X865000Y165000D03*
G54D38*Y120000D03*
X875000D03*
Y150000D03*
X865000D03*
G54D37*X890000Y180000D03*
G54D36*G36*
X882250Y167750D02*Y162250D01*
X887750D01*
Y167750D01*
X882250D01*
G37*
G36*
X902250Y132750D02*Y127250D01*
X907750D01*
Y132750D01*
X902250D01*
G37*
G54D39*X895000Y130000D03*
G54D38*X885000Y120000D03*
Y150000D03*
X900000Y165000D03*
X862500Y297500D03*
X872500D03*
Y305000D03*
X862500D03*
X882500Y297500D03*
X892500D03*
Y305000D03*
X882500D03*
X900000Y192500D03*
X257500Y105000D03*
Y130000D03*
X445000Y105000D03*
X632500D03*
X445000Y125000D03*
X632500D03*
G54D43*G54D44*G54D45*G54D44*G54D45*G54D44*G54D45*G54D44*G54D45*G54D44*G54D45*G54D44*G54D45*G54D44*G54D45*G54D44*G54D45*G54D44*G54D45*G54D44*G54D45*G54D44*G54D45*G54D34*G54D45*G54D46*G54D45*G54D46*G54D45*G54D46*G54D45*G54D46*G54D45*G54D44*G54D45*G54D44*G54D45*G54D44*G54D45*G54D44*G54D45*G54D44*G54D45*G54D44*G54D34*G54D45*G54D46*G54D45*G54D46*G54D44*G54D45*G54D46*G54D41*G54D45*G54D44*G54D45*G54D33*G54D47*G54D34*G54D46*G54D45*G54D34*G54D46*M02*
